<svg xmlns="http://www.w3.org/2000/svg" fill-rule="evenodd" image-rendering="optimizeQuality" shape-rendering="geometricPrecision" viewBox="0 0 300 209.59">
  <defs>
    <linearGradient id="linearGradient" x1="0" x2="0" y1="0" y2="1">
      <stop offset="0%" stop-color=" #c3e4a7"/>
      <stop offset="90%" stop-color="#f6fbef"/>
      <stop offset="100%" stop-color="#f6fbef"/>
    </linearGradient>
  </defs>
  <path d="M236.29 209.59h-10.72v-1.44l.32-47.8-.48.16c-.16.16-.8-.48-.96-.48-.63-.48-.31-.48-1.27-.48-.48 1.44.16 2.24 0 3.68-.32 1.43-.8.63 0 2.87l1.6 4.16c.63 1.28.63-.16.63 2.08l-.48.32-.32.16-.47.16-1.92-.64c0-1.44 1.28-3.36-2.72-4.48v.8c.32 1.6-.8 2.08-1.6 3.36.64 1.28.96 4-1.6 3.2 0 1.43-.32 2.55-1.44 3.35l-1.44-2.24c-.96.16-1.43.16-2.23-.16l-.96 1.92c-1.76-.8-1.28-1.44-1.6-3.03 0-.64-.48-1.28-.48-1.76 0-.64.16-1.28.64-1.44 1.6-.96 1.44 1.28 1.6 2.4.16.64.48.8.8.64.8-1.44.16 0-.16-1.12-.48-1.28-.16-1.12 0-1.6.48-1.76-.16-1.28.16-2.72.64-2.88 3.67-1.6 2.4-3.84l-2.56 2.08-.16-.16-.32-.96c0-.48.32 0 0-.8l-1.12 1.12c-.16-.16-.16 0-.32.16-.8-.64-1.28-1.12-.96-2.4.16-.8-.16-.48.48-.96 1.28-.63 1.28.8 2.56 1.12.32-.64.32-.96 0-1.91-.32-1.28.32-.64-.96-1.28-.16.48 1.12 1.76-1.28 1.6-1.6-.16-1.44-1.12-1.44-2.24v-.16c-2.4-.32-3.52-.16-4.48 1.28-.16-.64.16-.8.48-1.28l-1.44-.32-.64 1.76c-1.12 0-2.71.48-2.23-1.6.32-1.12 1.11-1.12 2.4-1.12.15-1.12.31-1.92 1.27-2.08 1.28 0 .64-.16 1.92-.96l-.8-2.08c1.6 0 2.4.32 3.04 1.28-.64-1.92-.64-2.08-2.4-3.04l-.32.48h-.16l-.32.16c-.64.48 0 .48-.96.32l-3.67-2.55c-.48-.64-.32-1.6-.8-2.08-.8 2.4.8 3.35-1.28 4.95l-.16-.16-.32-.16-.8-1.12c-.64 1.12-.64 1.76-1.28 2.72l-.48.64-.96-.32c.16 0 .16-.16-.16-.48l-.48-.64c-.8-1.28 0-.64-.8-.8-.32 1.76.64 0 .48 2.88 1.6-.16 2.4.16 1.76 2.4-.64 2.08-.96 1.12-1.92.16-.64 1.12-.32.32.32 1.76 1.44-.96 1.92-.48 3.04.16 0 1.28.48.32-.64 1.28l-.96.64c-4.48 2.23-3.68-2.72-3.68-3.04-.48-3.04 1.12-4-1.76-3.2-.32-.96-.95-1.44-.8-2.4.33-1.76 3.68-2.56 2.08-4.95l-.96.32v.32c.32 1.12 0 1.6-.64 2.07-.15 1.12-.63.32-2.07.8l-.16.16c-.16 2.4 1.76 2.08 1.76 3.84l.47.32c.48.16.64.8.64 1.44 0 .48-.48 1.12-.64 1.76-.15 1.6.32 2.24-1.43 3.04l-.96-1.76h-2.4l-1.28 2.23c-1.28-.8-1.44-1.91-1.6-3.35-2.56.8-2.08-1.92-1.44-3.2-.8-1.28-1.92-1.76-1.76-3.36l.16-.8c-4 1.12-2.87 3.04-2.71 4.48l-1.92.64-.64-.16-.16-.16-.64-.32c.16-2.08 0-.8.8-1.92l1.6-4.31c.8-2.24.16-1.44 0-2.88v-.48l-.64.64-1.12 1.76c-.16.32-.64.48-.96.48l.16 42.52 1.76 16.15H158.9l2.88-25.58-.32-20.15c-.32.48-.96.96-1.28.96-1.6.32-1.12-1.6-1.12-2.71-1.44.48-1.76.8-3.2.48.48 1.27.96.48 1.44 1.6-.48.31-1.44 1.27-2.24 1.11-1.12-.16-.96-.64-1.44-1.75-.64.31 0 0-.48.47-.64.48-.48.64-1.28.96l-.95-1.75c-1.6.8-1.76 0-2.72-1.12-.8.48-.96.32-1.44.48l-.32.64c.48.32.8.63.8 1.27 0 1.44-.32.96-.8 1.28a6.55 6.55 0 010 .32l-.48.32c-.16.32-.16.8-.48 1.12-.8.64-.96.48-1.44.16-.8 3.52-3.2.64-4.16 3.68-.63 1.6 1.12 2.56-1.11 4.16-.8-.64-1.12-1.6-1.12-2.72l-.48.48-.96-.96-.64-.32c-2.72-.96-1.12-1.12-2.24-3.04-.8-.96-.64-.8-.64-2.08-.32-.16-.48-.64-.64-1.28l-.96.16c0 3.2 1.92 1.6 1.12 4-.64.32-.8.96-1.6 0-.48-.48-.48-.96-.8-1.6-.64-.64-.96.32-.96-1.28 0-.96.64-1.28.96-1.76-.96-.48-.96-.16-2.08-.8-.8 1.12-.95 1.92-2.71 1.12l-.8 1.92-.48-.32c-.16.32-.64.32-1.28.32l-.32-.96c-.16.8-.32 1.12-1.12 1.28-.64 0-1.12-.32-1.6-.64.48 1.12.8.16-.96 2.4l.32.16c2.08 1.76 1.44 2.08.48 3.04l-.96 1.76c-1.12 1.6-3.51-.48-.48-2.4l.32-2.72-2.56-.48-.47.16-.16-.32-.48-.48v1.28l1.6.64c.15.64.31.96.15 1.6l-.32.32c-.64 1.12-.48 2.08-1.6 2.4v7.19l3.2 27.98h-14.7l2.07-18.39v-4.95c-.96.48-1.28.64-2.55.32.32 1.43.8.48 1.27 1.6-.48.47-1.27 1.27-2.23 1.11-1.12-.16-.96-.48-1.44-1.75l-.48.47c-.64.64-.48.64-1.28.96l-.96-1.75c-1.6.8-1.76 0-2.56-1.12-1.12.64-1.12.32-2.08.8.32.48.96.8.96 1.6 0 1.6-.32.8-.96 1.43-.48.64-.32 1.12-.8 1.6-.8.8-.95.32-1.6 0-.95-2.4 1.12-.8.96-4l-2.23-.31.16-3.84c.96.16 2.07.8 2.23.96l1.28-.16.32-.16.64-.32c-3.2.8-2.56.32-3.67-1.6l.96-.64h.15c1.12-1.12.32-1.92-.31-3.04 0 .8-.32 1.12-1.44 1.6-.64-.8-.32-.32-.64-1.28l-.48-1.12c-.8 1.12-1.92.32-2.72.48l-.32.96 3.04-.48c-.8 3.84-2.08 1.6-2.4 3.52.8.64 1.44.32 2.4-.48l.64-.48c-.48.96-.48.8-1.28 1.28.48 1.44.64 1.28.48 3.04v2.4l.16.15 1.6.32c0 1.6.16 1.28-.64 2.4-1.12 1.76.48 2.08-2.24 3.04l-.96.32c-1.28-3.2-.16-3.2 1.76-5.12a2.97 2.97 0 00-1.92-1.12c.8 1.6.16 2.72-1.28 3.2.16 2.56.8 4.96-.8 6.24-2.24-1.6-.48-2.56-1.12-4.32-1.12-3.2-3.83.48-4.47-4.64-.96.16-1.44 0-2.24-.48.16-2.07.8-.31.32-2.23-.64-1.76-.48-1.28-.16-3.04-1.28-.48-.96-.16-1.44-1.76-1.28 1.12-.16.64-1.28 1.12l-.96-1.12c-1.76-2.88-1.44-1.28-2.72 0-1.6-.16-1.28-.16-1.92-1.28-.16.96-.48.96-1.11 1.28.63 1.28.8 1.6.16 2.88l-1.44-.16c-.8-1.92-.16-1.44.32-2.72.48-.96-.16-1.28 0-3.04-5.28.16-3.04 1.76-2.56 3.2l-2.08.16-.32 24.62.48 3.84h-9.75l.16-42.2-.48.15c-.16.16-.8-.48-.96-.48-.64-.48-.32-.48-1.28-.48-.48 1.44.16 2.24 0 3.68s-.8.64 0 2.88l1.6 4.15c.64 1.28.64-.16.8 2.08l-.64.32-.16.16-.64.16-1.92-.64c0-1.44 1.28-3.36-2.72-4.47v.8c.32 1.6-.8 2.07-1.6 3.35.64 1.28 1.12 4-1.6 3.2 0 1.28-.31 2.56-1.43 3.36L39 183.37c-.96.16-1.44.16-2.24-.16-.48 1.12-.32.96-.96 1.76-1.76-.64-1.28-1.28-1.6-2.88 0-.64-.48-1.28-.48-1.76 0-.64.16-1.28.64-1.44 1.76-.96 1.44 1.28 1.6 2.4.16.48.48.8.8.64.8-1.44.16-.16-.16-1.12-.48-1.28-.16-1.12 0-1.6.48-1.76-.16-1.28.16-2.88.64-2.71 3.68-1.43 2.4-3.67l-2.56 2.08-.16-.16-.16-.96-.16-.8-1.12 1.12-.32.16c-.8-.64-1.28-1.12-.96-2.4.16-.96-.16-.48.48-.96 1.28-.64 1.28.8 2.56 1.12.32-.64.32-.96 0-1.92-.32-1.28.32-.64-.96-1.28-.16.48 1.12 1.76-1.28 1.6-1.6-.16-1.44-1.12-1.44-2.24v-.16c-2.4-.32-3.51-.16-4.47 1.28 0-.64.16-.8.48-1.28l-1.44-.32-.64 1.76c-.96 0-2.72.48-2.24-1.6.32-1.12 1.12-1.12 2.56-1.12.16-1.12.16-1.92 1.12-2.08 1.44 0 .8-.16 1.91-.95l-.8-2.08c1.6 0 2.4.32 3.2 1.28-.8-1.92-.8-2.08-2.55-3.04l-.32.32-.16.16-.16.16c-.8.48 0 .48-1.12.32l-3.68-2.56c-.32-.64-.32-1.6-.64-2.08-.96 2.4.64 3.36-1.44 4.96l-.16-.16-.16-.16-.96-1.12c-.64.96-.64 1.76-1.28 2.72l-.48.64-.8-.32-.32-.48-.47-.64c-.8-1.28 0-.64-.8-.8-.32 1.76.64-.16.48 2.88 1.6-.16 2.55.15 1.75 2.4-.64 2.07-.96 1.11-1.91.15-.64 1.12-.32.32.32 1.6 1.43-.8 1.91-.32 3.03.32 0 1.28.48.32-.64 1.28l-.96.64c-4.47 2.24-3.67-2.72-3.67-3.04-.48-3.04 1.12-4-1.76-3.2-.32-.95-.96-1.43-.8-2.4.32-1.75 3.84-2.55 2.24-4.95-.96.32-.8.16-1.76.8 0 3.84-.16 1.92-2.08 2.72-.48 3.04 2.56 1.92 1.28 5.43-.32 1.12-1.92 1.6-3.04 2.08l-1.12.64c-1.6-1.76-.64-1.92-1.12-3.84-.48-1.6-1.75-2.87-1.91-3.67.16-2.08 2.4-4.8 1.11-6.08-1.91.64-.48 1.6-3.2 2.08-.63-2.4-.31-2.4.17-4-1.6-.96-.96-.48-1.44-2.07-.96-2.4 0-2.72-.64-3.84-1.12-2.4-1.6-.32-1.6-4.16.96.32 1.6.32 2.08.96l.96 1.44c1.28-1.12.48-.16.96-1.28s0-.64.8-1.76l-.8-.32c-.8-.48-.96-.48-1.28-1.6a5.87 5.87 0 01.16-2.87c1.92 0 2.08.16 2.08 1.92.64-.32 0-.8 1.11-.64.48 0 3.2 2.07 5.12 3.03.16-.64 1.12-.96 1.28-1.92-2.88 2.24-4.48-1.75-4.32-4.15-1.44-.64-2.71-.96-1.76-2.88 1.6-.48 2.08.64 2.08 2.24 1.28-.16 1.6.32 3.52 0l-.16 2.08c1.76.32 1.12.64 2.56.8 1.12.16 5.27-.48 2.56 1.91-.96.8-1.28.32-2.4.32l.64.16.64.64c.16.8.16 1.44-.16 2.24-.16.96-.16.16-.48 1.28 2.4 1.92 1.28-.96 3.2 1.28 1.27-1.76.95-1.28.31-3.52l1.6-1.28-1.92-1.6.64-1.11.64-.64c.8.64.8.32 1.12 1.44 1.92-2.56-.48 0 2.24-1.28l1.76-.96.8-.32-.32-.64-.64.32-2.24 1.44c-1.6-.8-1.92-.8-2.08-1.92-.8-.48-.48-.48-1.28-2.24-2.55.32-2.23-.8-2.87-1.92-.64-1.44-.32-1.76-1.76-2.72.32-.96.48-.96 1.44-1.75-.64-.96-.64-1.44.32-2.24 1.76-1.44 2.87.16 2.87.32-.8 1.28-.64 1.44-2.07 2.24 0 0 1.91.16 3.2.63l-1.6-1.75c.8-.16.31-.16 1.11.16.32 0 .32.16.48.32-1.76-2.08 0-.8-.8-2.88l-.32-.96c.64-1.12 1.12-1.12 1.44-1.28a15.19 15.19 0 00-.16-.8c-.8-.96-1.44-.8-2.4-1.12-3.03-.8-2.4 1.6-2.23 3.04l-2.08-.64-.48 1.6c0-.16-1.6-1.44.16-3.52l.48-.48.16-.32c.8-1.12.96-2.08.96-3.52-.8-.47-.64-.47-1.12-.47-.16.31-.48.63-1.12.95-.96.48-.64 0-1.28.64l-.96.8-.16-.32-.16-.32-.32-1.28c-.32-.8-.8-.95-1.44-1.6-.48-.47-.64-.31-.64-.95 1.6-.48 2.08 1.12 3.2 1.6l1.6.32c.8-3.2-.48-.64-1.28-3.36-.48-1.44 1.12-2.56-1.12-3.2l-1.12 1.92-.48.8c-.32-1.28-.8-2.24-1.76-2.72l-1.43.96.48.64c.47.8.8 1.12.31 1.92-1.43-.64-.31-1.28-1.91-1.6-.64-.32-.64 0-1.44-.32.16-1.12.16-1.92.64-2.24-.64.16-.16.48-2.08 0a3.43 3.43 0 012.08-2.56c-.8-1.12-.64-.48-.64-2.23l1.76-.64C4 96.88 1.44 96.4 2.4 92.4c.96-.32.96-.48 2.24-.16l.48 1.44c1.43-1.12 1.11-2.87.95-4.63 1.76-.48.96-.32 1.44-1.28.96-1.44.16-1.12 2.56-1.12 1.6 1.76 1.44.96-.16 2.72.96.8.48.16 1.12 1.28l1.44-1.6.32-.64.16-.16.16-.16-.32-1.28c1.44 1.28.96.32 2.88.96.32.48.32.96.32 1.28l.48-.96c3.35.48-.96.48 4.31 1.28l-.16.64.16-.32c1.12.16 2.08.64 2.88.96.96.31 1.28.31 2.08.8l2.4 1.11-.16-.64.16-1.6c.96-.31.96-.15 1.6.33l-.96-2.24c-1.12 1.44-.96.96-2.88 1.12-.8-2.56-.16-1.44-2.4-2.08 0-.8 0-1.6.48-2.08.48-.32 1.12-.16 1.76-.16 1.12 1.44-.96.64 1.44 1.6 1.76.64.64 0 1.12 0l1.76 3.36c1.11-1.6.63-1.76 1.6-1.6l1.6.32a10.72 10.72 0 00-3.84-4.16c-1.76-1.28-2.72-.64-3.04-1.76-.16-.96.16-.96.96-1.44-.96-1.44-.48-1.76.16-3.2-3.36-1.11.48-1.43-3.2-1.6.48.8.64 1.13.48 2.09 0 .63-.48.8-.64.95l-.48.32c1.12.64.64.48 1.6 1.44l.48.64c-1.76 1.28.48 1.44-2.88 1.44-.32 1.28-.16.96-.96 1.76-2.08-.64-.32-1.44-2.56-.64-.96.32-.96.96-2.23.48-1.28-.8-.64-3.36 4-2.24-.33-3.36-.33-2.56 2.07-3.2l-.8-1.27c-1.12.32-1.6.95-3.04.32.16-2.56 1.44-1.6 4-1.76l-.64-.32-.16-.16-1.44-1.28-.16-.16c-.32-.32-.32 0-.48-.48-.32-.64 0-3.36-1.92-2.88-.95.32-.63.64-.63 1.6 0 3.84 1.43 3.36-1.28 4.8-.8-2.56-.8-2.24.96-3.84-2.4-.64-1.44-.64-1.92-2.88-.32-1.44-.64-.64-.48-2.72.96-.32.8 0 1.12 0h.48l.48-.16c.95-.32-.96-.32 1.6-.32l2.23-.32c2.72 0 1.76 1.28 2.72 2.4.32.48.96 0 .48 2.24-1.76.16-1.92-.48-2.4-2.08-.48 1.12-.32 1.12-.96 1.92l1.76 1.92c2.72-.16 2.56 0 3.84 1.44 2.56-.8 0-1.6.64-3.04.64-1.12 1.12-.32 2.72-.8l.8-.32c-.8-.64-.64-.32-1.28-1.28.48-1.28 1.27-2.08-.32-3.2v1.44c-1.28-1.6-.32-2.07-.32-2.55-1.28 1.11-1.28-.32-1.28-.32 0-1.12 0-2.24 1.12-2.72l.48-.16c-.64-.16-1.76-.32-3.68-.16l2.88-.48c-1.28 0-.96-2.08-4.48-1.92 1.28 2.4.32 1.76.96 3.52 1.12.32 2.24.16 2.24 1.12 0 1.28-1.92 1.28-2.56 2.87l-.16-.16-.64-1.6c-.48-1.11-.32-1.43.64-1.75-.16-.32-2.4-1.6-2.08-3.04 1.44-2.24 2.4-.96 3.52-1.6-.8-2.4-3.52-.32-3.2-3.68l2.08-.32c.8-4.31 3.52-1.6 6.55-3.67.64-.48-.64 0 .8-.48 1.6-.64 1.76.96 1.76 2.4-.48.32.8 1.43-1.6.16.8 2.71 0 1.27-.32 1.75l-2.87-.96c.64 1.28.16 1.12.32 2.56l2.4.48v-.64l1.43-1.76c1.44-1.11 2.56-.64 3.68.16l.64-1.27c.48-1.12-.16-.96.8-1.44 1.28-.64 1.76.48 1.92 1.75 2.87-1.91 4 1.44 2.08 1.92.31.32.16.64.31 0 1.92-.32 1.76.16 3.52.32-.32 1.28.16 1.6-.96 1.44 1.6.64 1.12.48 2.08 1.12l-.16-.16-.32-1.28.32-.64c.16-2.24-2.08-1.28-2.4-4.47l-.16-.48a6.65 6.65 0 01-3.51-.32c-.48-.16-1.12.48-1.76-.96-.48-1.28-.32-1.44.32-2.24 2.24-.16.64.8 4 2.08l.63-1.28c1.12.48.96.64 1.76 0-1.76-2.4.8-2.56-2.24-3.36-.32 1.12-.32.64-.32 1.44 0 .64.48.48.16 2.08-1.6.16-1.75-.48-2.4-1.6l-.63-.8L39 46.36c-.8-.32-1.76-.32-2.24-.64-.32-.96-.16-1.12-.16-1.92v-.96c.16-1.27 2.08-1.11 3.04-1.11.96-.16.16 0 .96-.48.96-.48-.16-.48 1.76-.48-.48.8-1.76 1.75-.8 2.55 1.27 1.12 1.75-.8 2.07-1.6h1.12c-.32-2.55-1.28-1.6.16-3.51.96 0 3.04.96 4.8 1.12-1.44-3.52-1.28.96-4.32-2.24-.8.64-2.24 2.08-3.03.96-.48-1.6.31-1.76 1.91-1.76l-.16-.32c-.16.48-.64-1.44-.32-2.4 2.4-.16 1.6.48 2.4 1.92 1.12-.64 1.12-.8 2.24 0 .32-2.88 1.12-.64 1.92-2.24l-.16-.16-.64-.48c-1.12-.8-.96-1.92-.16-2.87l-.16-.16-.48-.16-.8-.32c.48-2.4 4-4.32 4-.8-.8.64-.8.64-1.92.8.64.96.64 1.6 1.76 1.91-.64-1.6-.16-2.23.64-3.51.64-1.28-.48-.16.8-1.12 1.91.48 1.43 1.44.8 3.04l-.32 1.43-1.12 1.28 3.51-.96.96 1.44 1.28-.8c-.48-1.44.32.32-.96-.8-.8-.95-2.08-2.71-2.24-4 2.56-1.11 1.12.65 4.32-1.11l-.64 1.28c-1.92 2.88-.96 3.83.32 3.04.64-.32.64-.96.8-1.6.96.8.32.8.64 1.6.64-1.12.8-.8 1.76-1.44l.16-3.04 1.76-.16.16-.8c.16-.64.16-.48.48-.8l1.91 1.44.16.16c-.95.32-1.6.48-1.91 1.44l-1.6 1.44c.32 1.12.48 1.44 1.44 1.91 1.12-.63.48 0 .96-1.27l.95-2.24 1.92 2.08.16.16c-.16 2.23-1.12.16-.48 2.23l2.24-.96.16-1.75.32-.8c1.28.64.32-.16.64.8l.16 1.6c.16 1.27.32 1.91 1.44 2.07.64-1.12.16-.8.48-1.76.32-.8-.16-.16.32-.8.48.96.32 2.72.32 3.68-1.28-.16-1.92.16-3.04.32-.8 2.56-.64.48 0 2.24.32 1.44 0 2.56-1.12 2.72.64 0 1.6-.48 1.92-.64.96-.64.48-1.12 1.76-1.12l-.96-2.08.32-.16.16-.16c.64-.16 1.6-.64 2.24-.32.48.8.32 1.6.64 2.24 1.12-1.12 2.08-.32 3.03-.8-.8-2.4-3.51-.32-3.35-3.68l2.08-.32c.8-4.31 3.67-1.6 6.71-3.67.64-.48-.64 0 .64-.48 1.76-.64 1.92.96 1.92 2.4-.48.32.8 1.27-1.6.16.64 2.55 0 1.27-.48 1.6l-2.88-.8c.64 1.27.32 1.11.48 2.55l2.24.32.16-.48 1.28-1.76c1.44-1.12 2.56-.64 3.68.16l.8-1.28c.31-1.11-.17-.95.8-1.43 1.27-.8 1.75.48 1.91 1.75 2.72-1.91 4 1.44 1.92 1.92.48.32.32.48.48 0 1.92-.48 1.76 0 3.52.32-.32 1.28.16 1.6-.96 1.44 1.6.64 1.12.48 1.92 1.12v-.16l-.32-1.44.32-.64c.16-2.24-2.24-1.12-2.56-4.31v-.48a6.65 6.65 0 01-3.52-.32c-.64-.16-1.28.48-1.92-.96-.48-1.28-.16-1.44.32-2.24 2.24-.32.64.8 4.16 1.92l.64-1.28c1.12.48.8.8 1.76.16-1.92-2.4.8-2.56-2.4-3.36l-.16 1.44c0 .64.32.48.16 2.08-1.76.16-1.76-.48-2.4-1.6l-.64-.8-1.6-1.12-2.23-.64-.16-1.92.16-.96c.16-1.27 1.91-1.11 3.03-1.27.8 0 .16.16.8-.32 1.12-.48 0-.48 1.76-.48-.32.8-1.6 1.75-.64 2.55 1.12 1.12 1.6-.8 2.08-1.75h.96c-.16-2.4-1.12-1.44.16-3.36 1.12 0 3.04.96 4.95 1.12-1.43-3.52-1.27.96-4.31-2.24-.8.64-2.24 2.08-3.2.8-.48-1.44.48-1.6 2.08-1.76l-.16-.16c-.16.32-.64-1.6-.32-2.4 2.24-.16 1.6.32 2.24 1.92 1.28-.64 1.28-.8 2.4 0 .32-3.04 1.11-.64 1.91-2.4h-.16l-.64-.48c-1.11-.8-1.11-1.92-.16-2.87l-.31-.16-.32-.16-.8-.32c.48-2.4 4-4.48 3.83-.8-.64.64-.64.48-1.76.64.48 1.11.64 1.75 1.76 2.07-.8-1.6-.16-2.23.48-3.51.64-1.28-.32-.32.8-1.12 1.92.32 1.44 1.28.96 3.04l-.32 1.43-1.12 1.28 3.52-.96.96 1.28 1.28-.64c-.48-1.44.32.32-.96-.96-.8-.8-2.08-2.55-2.24-3.83 2.4-1.12 1.12.64 4.16-1.12-.16.96-.16.64-.48 1.12-1.92 3.03-.96 3.83.32 3.2.48-.48.48-.96.8-1.6.8.8.16.64.48 1.6.64-1.12.96-.96 1.91-1.44V1.76l1.92-.16V.8l.48-.8 2.24 1.6c-.96.32-1.6.32-2.08 1.28l-1.44 1.6c.32 1.12.32 1.44 1.28 1.75 1.28-.47.64.16 1.12-1.27l.8-2.08 2.08 2.08.16.16c-.32 2.23-1.12.16-.48 2.07l2.24-.8.16-1.91c.16-.8 0-.16.32-.64 1.28.64.32-.16.48.8l.32 1.6c.16 1.27.16 1.75 1.28 2.07.63-1.12.32-.96.63-1.76.32-.8-.16-.32.32-.8.48.96.16 2.72.16 3.68-1.11-.16-1.75.16-3.03.32-.8 2.56-.48.48 0 2.24.48 1.28.16 2.4-.96 2.72.64-.16 1.6-.48 1.92-.8.8-.64.48-.96 1.75-1.12l-.95-1.92.16-.16.32-.16c.63-.32 1.43-.64 2.07-.32.64 1.28.32 2.24 1.44 3.04l1.12.64c-.48 1.12-.48.64-1.12 1.6l-.32.64c-1.6-1.12-1.92-2.24-2.4-1.92-.32.32-1.11-.64.16 1.28.48.64.96.32 1.6.64v.32c.96.16.48 0 1.12.48.96.64 1.12 1.12 1.92.32l.32-.48.16-.32 2.08 2.87c-.96 1.12 0 .8-1.44 1.92.64 1.28.64 2.24-.48 3.2l.48 1.12c1.28 0 1.44 0 2.56.64.32-1.92 0-3.36 2.72-2.4.47 1.6.31 1.92-.16 2.72l.32 1.92c1.27-.64 1.27-.64 2.71-.48l.48-1.28c-1.12-.96-1.28-1.92-.48-3.2-1.6-1.12-.48-.64-1.44-1.76l2.08-3.04.16.32.16.48c.8.96.96.32 2.08-.32.64-.32.16-.32 1.12-.48v-.16c.64-.47.96 0 1.6-.8 1.12-1.75.48-.95.16-1.11-.64-.48-.8.64-2.56 1.75l-.32-.63c-.48-.96-.48-.48-.96-1.6l.96-.64c1.12-.8.8-1.76 1.44-3.04.64-.16 1.44.16 2.24.48h.16l.32.16-.96 2.08c1.28 0 .8.48 1.76 1.12.32.16 1.28.64 1.75.64-.95-.16-1.43-1.28-.95-2.72.64-1.76.8.32 0-2.24l-3.04-.32c0-.96-.16-2.72.32-3.68.48.64 0 0 .32.8.32.96-.16.64.48 1.76 1.12-.16 1.28-.8 1.44-2.08l.16-1.6c.16-.95-.64-.16.48-.8.48.48.16-.15.48.8v1.76l2.4.96c.63-2.08-.33 0-.65-2.08l.32-.32 1.92-2.07.96 2.23c.48 1.28-.16.64.96 1.28.96-.48 1.12-.8 1.44-1.92l-1.6-1.43c-.48-.96-.96-1.12-1.92-1.44l.16-.16 1.92-1.44.48.8.16.8 1.76.32.16 2.87c.96.64 1.12.48 1.76 1.44.32-.8-.32-.64.64-1.6.16.64.16 1.28.8 1.6 1.27.8 2.23 0 .32-3.03-.48-.64-.32-.16-.64-1.28 3.2 1.76 1.75 0 4.31 1.28-.16 1.11-1.44 2.87-2.24 3.83-1.28 1.28-.48-.64-.96.8l1.28.8.96-1.44 3.52 1.12-1.12-1.44-.32-1.44c-.64-1.6-1.12-2.55.8-3.03 1.12.96.16-.16.8 1.12.8 1.27 1.28 1.91.64 3.51 1.12-.16 1.12-.8 1.76-1.92-1.12-.16-1.12-.16-1.92-.64-.16-3.67 3.52-1.75 4 .8l-.8.16-.48.16-.16.16c.8.96.96 2.08-.16 3.04l-.64.32-.16.16c.8 1.6 1.6-.64 1.92 2.24 1.12-.8.96-.48 2.23 0 .8-1.44 0-2.08 2.4-1.92.32.96-.16 2.88-.32 2.4l-.16.32c1.6 0 2.4.16 1.92 1.76-.8 1.28-2.4-.32-3.2-.96-2.87 3.35-2.71-1.28-4.15 2.24 1.76-.16 3.67-1.12 4.8-.96 1.43 1.75.47.8.15 3.35h1.12c.32.8.8 2.72 1.92 1.76 1.12-.96-.16-1.92-.64-2.72 1.92 0 .8 0 1.76.48.8.48 0 .32.96.48.96.16 2.88-.16 3.04 1.28v.96l-.16 1.76c-.48.32-1.44.32-2.24.64l-1.44 1.28c-.48.32-.32 0-.64.64-.64 1.12-.8 1.76-2.56 1.6-.16-1.6.16-1.28.32-2.08 0-.8 0-.32-.32-1.44-3.03.96-.48 1.12-2.24 3.36.8.64.64.48 1.76 0l.64 1.28c3.36-1.28 1.76-2.24 4-2.08.64.8.8.96.32 2.24-.64 1.6-1.28.8-1.76.95-1.28.64-2.24.48-3.52.32l-.16.48c-.32 3.2-2.55 2.24-2.4 4.48l.33.64-.48 1.28v.16c.95-.64.48-.48 2.07-1.12-1.12.16-.64-.16-.96-1.28 1.76-.32 1.6-.8 3.52-.48.16.64 0 .32.32 0-1.92-.48-.8-3.68 2.08-1.92 0-1.28.64-2.4 1.92-1.76.96.48.32.32.8 1.44l.64 1.28c1.12-.64 2.24-1.28 3.67-.16l1.44 1.76v.64l2.4-.48c0-1.28-.32-1.28.32-2.56l-2.88.96c-.32-.48-1.12.96-.32-1.6-2.55 1.12-1.12 0-1.6-.16 0-1.6.16-3.2 1.76-2.55 1.44.47.16 0 .64.47 3.04 2.24 5.92-.63 6.72 3.68l2.08.32c.31 3.36-2.4 1.28-3.2 3.68 1.12.64 2.08-.48 3.51 1.76.32 1.44-1.91 2.56-2.07 2.87.8.48 1.12.64.64 1.92l-.8 1.44v.16c-.64-1.6-2.56-1.6-2.56-2.88 0-.95 1.12-.8 2.24-1.11.64-1.76-.48-1.12.96-3.52-3.52-.16-3.2 1.92-4.48 1.92l2.88.48c-1.92-.16-3.04 0-3.68.16l.48.16c1.12.48 1.12 1.6 1.12 2.71 0 0 0 1.44-1.28.32 0 .48.96.96-.32 2.56V45.4c-1.6 1.12-.8 1.92-.32 3.2l-1.28 1.44.8.16c1.6.64 2.08-.32 2.56.96.8 1.28-1.76 2.08.8 2.88 1.12-1.44.96-1.6 3.84-1.44l.32-.48c-.96-1.6-3.36 0-3.2-3.2l1.76-.16v-.16c.8-.8.32-1.92 1.6-2.24 1.27-.96 3.35.16 5.43-1.44.64-.48-.64 0 .8-.48 1.6-.64 1.76.96 1.76 2.4-.48.32.64 1.28-.96.48.16 1.28 0 1.28-.32 1.76l.64-.64c1.44-1.12 2.56-.48 3.68.16l.64-1.28c.47-1.12-.16-.96.8-1.44 1.27-.64 1.75.48 1.91 1.76 2.88-1.76 4 1.44 1.92 1.92.48.32.32.64.48 0 1.92-.32 1.76.16 3.52.48-.32 1.12.16 1.44-.96 1.28 1.6.64 1.12.48 2.08 1.12l-.16-.16-.32-1.28.32-.64c.16-2.24-2.24-1.28-2.56-4.48v-.48a6.65 6.65 0 01-3.52-.32c-.48-.16-1.28.64-1.76-.96-.64-1.28-.32-1.44.32-2.23 2.24-.16.64.8 4 2.07l.64-1.28c1.12.48.96.64 1.76 0-1.92-2.4.8-2.4-2.24-3.35-.32 1.12-.32.64-.32 1.44 0 .64.48.48.16 2.07-1.6.16-1.76-.48-2.4-1.6l-.64-.8-1.44-1.11-2.4-.64V35.8c.17-1.28 1.92-.96 3.04-1.12.96-.16.16 0 .96-.48.96-.48-.16-.48 1.6-.48-.32.8-1.6 1.76-.64 2.56 1.28 1.12 1.76-.8 2.08-1.6h.96c-.16-2.56-1.12-1.6.16-3.52 1.12 0 3.04.96 4.96 1.12-1.44-3.51-1.28 1.12-4.32-2.23-.8.63-2.24 2.23-3.04.95-.64-1.6.32-1.75 1.92-1.75l-.16-.32c-.16.48-.64-1.44-.32-2.4 2.24-.16 1.6.48 2.4 1.92 1.12-.64 1.12-.8 2.24 0 .32-2.88 1.12-.64 1.91-2.24l-.16-.16-.63-.32c-1.12-.96-1.12-2.08-.16-3.04l-.16-.16-.48-.16-.8-.32c.48-2.4 4-4.31 3.83-.64-.64.48-.64.48-1.76.64.64.96.64 1.6 1.76 1.92-.8-1.6-.16-2.24.64-3.52.48-1.28-.48-.16.64-1.12 2.08.48 1.6 1.44.96 3.04l-.32 1.44-1.12 1.44 3.52-1.12.96 1.44 1.28-.8c-.48-1.44.32.48-.96-.8-.8-.96-2.08-2.72-2.24-4 2.56-1.12 1.12.64 4.32-1.12l-.64 1.28c-1.92 3.04-.96 3.84.32 3.04.64-.32.64-.96.8-1.6.8.8.16.8.48 1.6.8-1.12.96-.8 1.91-1.44l.16-2.88 1.76-.32.16-.8c.16-.63.16-.47.48-.8l2.08 1.6c-.96.32-1.6.48-1.92 1.44l-1.6 1.44c.32 1.12.48 1.44 1.44 1.92 1.12-.64.48 0 .96-1.28l.8-2.24 2.08 2.08.16.16c-.32 2.24-1.12.16-.48 2.24a7.26 7.26 0 002.24-.96l.16-1.76.32-.8c1.28.64.32-.16.64.8l.16 1.6c.16 1.28.16 1.92 1.44 2.08.48-1.12.16-.8.48-1.76.31-.8-.16-.16.31-.8.48.96.32 2.72.16 3.68-1.11-.16-1.75.16-2.87.32-.96 2.56-.64.48 0 2.24.32 1.43 0 2.55-1.12 2.71.64 0 1.6-.48 1.92-.64.8-.64.48-1.11 1.76-1.11l-.96-2.08.32-.16.16-.16c.63-.16 1.6-.64 2.23-.32.64 1.28.16 2.24 1.28 3.03l1.12.64c-.48 1.12-.48.64-1.12 1.6l-.32.64c-1.6-1.12-1.92-2.24-2.4-1.92-.31.32-.95-.64.16 1.28.48.8.96.32 1.6.8v.16c.96.16.48.16 1.12.48 1.12.64 1.28 1.28 1.92.32l.32-.48.16-.32 2.08 2.88c-.96 1.12.16.8-1.44 1.92.64 1.28.64 2.24-.48 3.2l.48 1.27c1.44-.16 1.44-.16 2.56.48.32-1.75 0-3.35 2.72-2.23.8 2.07.16 1.75-.8 4-.32.95.48.47-.48.95 0 1.76.8-.48 1.28 2.72-.96.48-.32.96-1.6.64v1.44c1.6-.96 1.44.16 4-.8h.15l.16-.16c4-2.08 2.72 0 3.2 1.28 1.6 0 1.92.64 2.88 1.28 1.6.96 1.92 0 3.04 1.12 1.6 1.75-1.44-.48 2.23 2.55 0 1.12.16 1.28-.32 2.24l-1.27 2.08h-.48l-.32-.16c-1.44-.48-1.12 0-1.28.16l-.32 2.88c-4 .48-1.76-2.24-2.4-3.84-.64.32-.8 1.28-1.92 1.28 0 2.08-.48 1.92-1.44 3.04 2.56 1.76 4-2.24 4.96.64.32 1.6-.48 2.4-1.44 3.03-1.44.96-1.6.32-2.4-1.11l-.64.48-.64.63-1.12 1.76-.8-.16c-3.35-.64-3.67 1.92-3.83 2.24-1.12.16-1.76-.16-2.88.32-1.28.48-.16.96-1.92 1.12l-2.4-.16c-1.76-.16-.8 0-1.92-1.28l-1.11 2.72c0 .8-.16.16.16.8 1.91-.32-.32-1.76 3.67-1.92.32.96.48-.64.16 1.28h3.52l-.64.48c-1.6 1.28-.16-.32-.96 1.76l-.64.48h1.6c-.16 1.44-.48.96-.64 2.23 1.6 1.12.8-.15 1.6 1.44a43.32 43.32 0 00.32 1.44c1.92-1.6-.96-.32.32-3.2 1.92-1.27 1.92-.31 2.72.96l.48-.48-.32-2.23c-.64.32-.8.8-1.44 0-.8-1.12-.16-2.56 0-3.2l.32-.8 1.28-1.6c1.27.64.96.96 1.6 2.08-.33-1.44 1.43-.8 2.23-.48 0-1.12 0-.96.48-1.92 1.76-.32.64.32 2.24-.16 1.28-.32.96-.48 2.56 0 .48 1.6-.48.48.32 1.92.8 0 3.52-.64 4.47-.96l-.32-1.6-.95.8c-.8.48 0 .32-1.12.48-.64-1.12-1.12-1.6-.48-3.2 1.76-.48.64.32 2.4.64 4.31.8-1.28.32 4.8 1.6l.47 2.24h-1.28c.32 1.92-.32 1.44.16 2.08.32.64.32-.16.32.8.32-1.76.32-2.4 1.92-2.88l-.48-.96c-.32-.64-.32-.16-.16-.96.8-.48 1.92-.8 3.2-.64.48.8.8 1.12.8 2.4l-2.24-.32c1.12 2.24 0 2.4 0 5.12h1.12c-1.28 1.44.96.8-.16 3.35.96-.8.48-.48.8-1.91l.8-1.76.64.16.16.48c.32.48.32.64.16.64l.64.16c.16.16-.32.63 1.75.16l.8-.32c.32 2.07-.32.48 1.44 1.75l.48.32.16.32c-.8 1.28-1.44 1.76-3.04 1.12.32.64-.64.16.96.64l2.56.64c1.76.48.64-.32 1.6.64.8.96 0 1.44-.32 2.4-5.92-2.08-.32-.16-5.92-.32l-1.6.48-.15.16 1.28.32.95.48 3.52 1.76c.64.48.16 0 .32.64l.16.16v.32c0-.16 0 0 0 0l.48-.32.16-.16c.48-.64.32-1.44 1.76-2.24.64.8.8.96.8 1.92l-.32 1.91c1.92.16 0-.32.8-1.6l2.4.17h.48c.8-2.56-1.12-.48-3.36-2.72.64-.8 1.44-1.28 2.56-.8 4 1.44 3.03 1.28 2.87 2.56l-.16 1.92c-.16 1.6-.16 2.07-1.43 2.71-1.28-.64-.32-.32-1.28-1.44-.64 1.12-.96 1.12-1.76 1.76-.8-.64-1.76-1.12-2.56-.8h-.16l-.48.16-.16.16-.32.16c1.76 1.12.96.16 1.6 2.4.48 1.28 1.28 1.92.8 3.36 1.44 1.6.64.64 1.92 1.6 1.76 1.6 1.76 4.47 2.08 5.27.48 1.12.95.64.48 2.56-1.28.32-2.08 0-3.36.32l-1.12.64-.8.8c.64.96.32 1.6-.16 2.4-2.88.16-1.76-1.76-1.28-3.36l-2.24-.8c0 1.76.8-.48.8 2.08 0 1.92-1.28 2.08-1.28 2.08-1.76.96-.8 2.71-2.71 3.35-3.2-1.6.16-3.35-.16-5.75-.16.16.47.48-1.12.48-2.08-2.24-1.6-1.92-2.72-3.68-.16 1.12 0 1.12-.64 2.24.16-.16.32-.16.96.48.64.64.64.96.96 1.92-.96.64-1.6.48-1.76.64-.32 1.12-.32 1.12.32 1.92-1.6.32-.32-.16-.8.63.32 1.28-.16 1.44.48 2.4.96 1.44 3.2.32.8 4-.96-.64-.8-1.44-1.92-.8-1.12.8.16 1.28.64 1.44l-2.72.16c.8.8 2.08.96 2.88 1.6-.32.64-.64 1.28-1.44 1.6l-1.76-.32c-.32-2.08 1.28-1.92.16-2.4-1.28-.64-.8.48-2.4.96l.32.16.32.16 1.44 1.76.16.32c1.44 0 2.72 0 2.72 1.6-.64.63-1.76.47-2.56 1.27h1.76c1.76 0 .48.16 1.6.32 1.44.32 1.6-1.28 3.04 0 .16 0 .8-.16.16 1.12-.16.32-.48.32-.8.48-.96.16-1.6-.48-2.08-.96-1.12 1.76-1.76.96-3.68 1.12l-1.44.16c.48 4.64-.8 3.68-1.28 5.92-1.6-.64-.16-.16-1.28-.8.32 1.76.16.32-.47 1.92l-3.04-.16c-.32.64-.16.64-.8 1.43-1.6 3.04 1.12.32-1.44 4.16 1.44 0 2.24.48 3.2.16v-2.24c1.44.32.64.48 1.76 0l1.11-.8 1.28.96.16.16c.96-1.6 2.08-1.76 3.36-4 .32-.63.8-.31.32-1.43-.32-.96 0-.16-.8-.64l-.8-.64 1.6-.8c.64.96.16 1.44.96 1.92 1.12 1.12 1.44 1.28 3.2 1.6.16-.64.32-1.76 1.12-2.24 1.43-.8.96.32 2.4.48l1.27-1.44c1.12-.8 3.04 0 .32 2.72-1.28 1.44-.48.64-.8 2.87a7.02 7.02 0 012.72 3.84c.48 1.44.48 1.44-.32 2.72-.96 1.6-.32 0-.32 1.6.32-2.72 3.52-1.76 2.08 1.92.48.8 1.44.96.96 2.4 1.12-.8 2.08.15 2.72 1.43-1.76.48-3.2.96-3.84 2.72l.96.96c1.6-.32-.32 0 1.6-.64 3.68-1.12 1.28-.48 2.24-3.68a5.16 5.16 0 01-3.2-2.23c1.12-.96 2.08-1.12 3.36-.64.96-1.44.96-1.28-.16-2.08-.32.96-.16.96-1.28 1.44-.8-1.6-1.6-2.56.48-3.52a3 3 0 011.28 1.12l.16.16c1.91-.8 2.55-.16 2.71 1.28.32.96.16.16.96 1.6-.64 2.07-.96.32-.32 2.07.64 1.28.48 1.12-.16 2.24-2.24-.32-1.44-1.12-2.08-2.4.32 1.76.48 1.92-.16 3.36 3.04.48 2.88.48 1.6 2.72-.48 1.12-.48 1.76-1.91 1.6-.32-.48-.16-.48-.32-1.28l-.16-.8v-.16c-2.72-.16-.16.64-2.72 1.28.48 2.24 1.12.48-.8 3.04l.16.16c2.24 1.75 1.6 2.07.64 3.03l-.96 1.76c-1.12 1.6-3.52-.48-.48-2.4l.32-2.71-2.56-.48-.48.16a2.56 2.56 0 00-.16-.32c-1.28-1.12-.96-1.6-.16-2.88-1.6 0-1.76.8-2.24 1.92 1.28.96.96 1.28 1.76 1.76l1.6.64c.32.63.48.95.32 1.6l-.32.31c-.96 1.44-.32 2.4-2.72 2.56-.8-3.52 1.6-1.44.48-3.84-.32-.31-1.12 0-1.6 0-1.75.64-4-.63-2.07-2.23-1.28-.64-1.12-.96-1.44-2.72-2.88-1.44-1.44-.32-1.76-4.16-1.44.64-1.76.16-2.56-.48-.32 1.92-.16.48.16 1.6l.32 1.44c1.76.32 2.24.64 2.24 2.24-1.92.48-1.76-.32-3.04-.96l-1.12-.16-.8-2.56c-2.24 1.76-.64 1.44-.16 2.4.8 1.12-.16 2.24-.48 3.04l-.64-.48c-3.03-2.4-2.24-.96-3.83-.8-.64.16-2.08-.64-2.4-.96-1.28-1.44.8-1.6-1.92-1.44.16 1.44.96 1.92-.32 3.52l-1.92-1.12c-.8-.48-.64-.48-1.28-1.28l2.24-.48c-.48-4.8-.16-1.92-.96-4.48-7.35.32 1.12-2.87-6.23-6.07l-2.24-.64h-.32l-.16.16c.64.96.48.96.48 2.24 1.12.16 1.44.48 1.44 1.6 0 2.4-2.08 2.07-2.08 2.07-.48-1.44-.64-1.44-.32-3.03 0 0-1.44 1.44-2.56 2.07l2.4-.16c-.48.64-.16.48-.8.8l-.8.16c2.88 0 .64.48 2.88 1.28l.8.32c.8 2.24-.64 1.76.8 2.72.96.48.32-.8 1.12 1.12.32.64.32 1.28.32 2.08-1.76-.16-2.08-.8-3.2-.32-.32 1.44-.16 1.44.48 2.4.32-.32 2.08-.8 2.56-1.12 1.28-1.28-.8-.96 2.23-1.92 0-1.6-1.27-1.92.16-3.68 1.92.8 1.12 2.08 1.44 3.68.32 1.28.48 3.52.16 4.63-1.76.48-.64.32-1.6-.16l-.8-.63h-.31c-.16 2.07-.16 1.43-1.6 2.55 2.4 0 1.28-.32 3.2-1.12.31 1.92.63 1.12.15 3.2-.16 1.28.16 1.28.96 2.08.64-.16.16.8.64-1.12 3.36.8 2.88 1.44 3.2.32-.8-.32-1.92.16-2.56-.48l-.32-.8c-.32-.8-.96-2.72-.16-3.04.96-.64.32.32 1.6.48.48-.96-.16-.96.16-2.4l1.92-.31.16-3.36c1.28.48 1.76.64 2.08 2.08.48 1.28.8 1.92.64 3.03l-3.84.64 1.12 2.4c.32.8 0 .96 1.12.8.64-.8.32-1.6.16-2.56 4.31-.64.32-2.71 2.4-4.8 1.91 0 1.91 1.29 1.27 2.73.64.47.8.8 1.12 1.27 1.28-.32 2.4-.64 3.2 0 1.44.96.32 2.88.16 2.4l-.16.32c2.24.16 3.2.32 3.04 2.4 0 1.28.16 1.76-.32 3.04-1.12 0 0 0 .16.32l1.44 2.87c.16 1.44-.64.64.48 2.08.8.96.64-.32.96 1.6a4.37 4.37 0 01-2.08 2.08c-1.6.16-1.12-1.76-1.12-2.88-1.44.48-1.6.8-3.04.48.32 1.44.8.48 1.28 1.6-.48.48-1.44 1.28-2.24 1.28-1.12-.16-.96-.64-1.44-1.76-.64.16 0-.16-.48.32-.64.64-.48.8-1.27 1.12l-.96-1.92c-1.6.8-1.76 0-2.56-1.12l-2.08.8c.32.48.96.8.96 1.76 0 1.44-.48.64-.96 1.28s-.32 1.12-.8 1.6c-.8.8-.96.32-1.6 0-.96-2.4 1.12-.8.96-4l-2.24-.32.16-3.84c.96.16 2.08.8 2.24.96l1.28-.16.16-.16.8-.32c-3.2.8-2.56.32-3.68-1.43l.8-.8h.32c1.12-1.12.32-1.92-.32-3.04 0 .8-.32 1.12-1.44 1.6l-.8-1.28c-.48-1.12.32 0-.32-1.12-.8 1.12-1.91.32-2.71.48l-.32.96 2.87-.48c-.64 3.84-1.91 1.6-2.23 3.52.8.64 1.27.32 2.4-.48l.63-.48c-.48.96-.48.8-1.28 1.28.48 1.43.64 1.27.32 3.03v2.4l.32.16 1.6.32c0 1.6.16 1.28-.64 2.4-1.12 1.92.32 2.08-2.4 3.04l-.8.32c-1.27-3.2-.15-3.2 1.76-5.12-.48-.64-1.12-.96-2.07-1.12.95 1.6.16 2.72-1.12 3.2.16 2.56.8 4.95-.8 6.23-2.4-1.6-.64-2.55-1.12-4.31-1.12-3.2-3.84.48-4.48-4.64-.96.16-1.44 0-2.24-.48.16-2.08.64-.32.32-2.24-.8-1.76-.48-1.28-.16-3.03-1.28-.48-.96-.16-1.44-1.76-1.27 1.12-.16.64-1.27 1.12l-.96-1.12c-1.76-2.88-1.44-1.28-2.72 0-1.6-.16-1.28-.16-1.92-1.28-.16.96-.48.96-1.12 1.28.64 1.28.8 1.6.16 2.87l-1.6-.16c-.64-1.75 0-1.43.48-2.71.48-.96-.16-1.28 0-3.04-5.43.32-3.04 1.76-2.56 3.2l-2.07.16-.32 24.62z" fill="url(#linearGradient)"/>
</svg>
