<svg xmlns="http://www.w3.org/2000/svg" fill-rule="evenodd" image-rendering="optimizeQuality" shape-rendering="geometricPrecision" viewBox="0 0 300 134.2">
<defs>
    <linearGradient id="linearGradient" x1="0" x2="0" y1="0" y2="1">
      <stop offset="0%" stop-color="#31552f"/>
      <stop offset="90%" stop-color="#f6fbef"/>
      <stop offset="100%" stop-color="#f6fbef"/>
    </linearGradient>
  </defs>
  <path d="M287 66c-1 0 0-1 0 0zM2 134h295l-2-9h1l-1-3c-1 0-2-1-1-2v1h1v1l1-1v-2c1 0 0-1 0 0l2-1s-1 0 0 0h1v-1h-1l1-1-2-1h1l-1-1h1l-1-1 1-1-2-1-2-1 2 1v-1l1 1v-1l-1-1-1-1 2-1v2c0-1 0 0 0 0v-1h2v-1-1h1-1l-1-2h1l-1-2v-1l-1-1-1 1v1l-1-1h-2l1-1h-1l-1-1v-1-1-1c0-2 0-1-1-1a2 2 0 01-1-1h1l1-1-1-2h-1v-1l-1 1-2 1 1-1v-1h1-1l-1-1h-2v1l-1 1-2-1h1l1-1v-1h1c1 0 0 0 0 0v-1-1l1 1h2l1 1 1 1h1l1-1h1v3l1-1 1 1h1c1 0 0 0 0 0v-1c0-3-2-1-2-4v1l1 1v-1l1 1-1-2-1-3-1 1v-1h2l1 1v2l1-1 2-1v-1h-1v-1l-3-1h3l-1-1h-2v-1h-2l-1 2h-1l1-2-1 1 1-1c-2 0-1 0-1-1l-1 1v1l-3-1v-1l-1 1h-2v-1h1v-1h1a3 3 0 00-1-1h-1l-1-1c-1 0 0 0 0 0v-1l3 1 1-1 1 1v-1-1l2 1 1 1v1h1v-1l1 1 1-1 2-1-3-1c0-1 1-1-1-2 1-1 0-2-1-2l-1-1-2-2-1 2v-1-1h-1l-1 1v-2h-1l-1-1h3l-1-1h4v-1h2-2v-1l-1-1v1l-3-1h1l1-1 1 1-1-1h-1l-1-1c-1 0 0 1 0 0h-2v1h-1v-1h-4v-1c1 1 3 1 2-1h0v-1h-1 1v-1l2-1h2l-1-1 1-1h-1c1-2 2 0 4-2l1-1h-5 2l-3-1-1-1h1-1l2-2c1 0 1 1 1-1l-4 2 1-1c0-1 0 0 0 0v-1l-2-1 1-1h-1v1h-1l1-1-1-1 1-1 1-1v-1h-2l-1 1h-1l-1 1v-1h-1l-1 1v2h-1v2l-1-1v-2h1l-1-1c-1 0 0 0 0 0l-2-2v1h-2v-1h1v-1l2 1-1-1c-2 0 0 0-1-1h-2s1 1 0 0l-1-1-1 2v-1h-4v-1c1 0 3 0 2-1h1l-1-1v-1h-1 1l2-2h1v-1l1-1h-1c0-2 2 0 3-2l1-1v-1h-2l-2 1v-1h1l-2-1-2-1h2l-1-1 2-1 1-1-4 1h1l-1-1 1-1h-3l1-2-1 1 1-1-1-1h-1l2-1v-2l1-1h-1l-1 1-1 1s0-2-2 0h-1-1l-1 1c-1 1 2 1 0 2l-1 2v-1l-1-2c-1 0-1 0 0 0h-1v-1c0-1 0 0 0 0h-2l1-1h-1v2l-1-1c0-2 1-1-1-2v1h-1l1 2v2l-1-1h-1v1h-1s1 0 0 0l2 2h-2c0 1 0 2 2 2l1 2-1-1c-2 0-1 0-1 1 0 0 1-1 2 1l1 1-1 2v-2h-2 2l-3-1v-1c-2 1-1 1 0 1l-1 1 2-1-1 2h-1c-1-1 0-2-2-2v1l-1-1v1h-1 1v1h3l1 1-2 1-1 1s0-2-1 0l-1 1v-1h-1l-1 1v3h-1v1l-1-1-1-2v-1h-2v-1l-1 1v0l-1-2-1-1 1 2h-1l1 3-1 1-1-1h-1l-1 2h-1l-1-2c1 2 1 2 2 1h-1c1-1 2-1 0-2v1l-3 1h2-2v3l-1-2 1-2 2-2h-1-1l1-1v-1c2 0 2-1 2-2h-1l-1-1 2-1-1-1s0 1 0 0v-1-1l-1 1h-1v-1l1-3h-1v-2 1c-2 1-1 0-1 2l-1 1v-1l-1-1v1h-1v1h-1s1 0 0 0l-1 3v1s0-1 0 0l-1-2c-2-1 0-1 0-3l-1-2-1 1-1 1v-1c-2-2-2-1-2 0l-1-1-1-1h-1c1 1 1-1 1 1v2l2 2h-2l1 2h-1v-1l1 2h-1l-2 1 1 1h-1l1 1-4-2 1 2 2 2h-1l2 1-2 1c-1 1-1-1-2 1h1v1l-2-1h-2l-1 1 2 1c1 3 3 0 3 3h-1l1 1v1l1 1 2 2h1-1v2h-1l1 1c-1 1 1 1 2 1v1h-3l-1 1-1-2-1 1c-1 1 0 0 0 0l-2 1h-1v1l-1 1 2-1v1h1l-2 1v-1c-2 0-2 1-2 2 0 0 1 0 0 0-1 1 0 0 0 0-1 0-1-1-1 1l-1-1v1l-1-1v-1l-2-1v-1l-1-1-3-2h1v-1l1 1v1h2v-1h1c1 2 0 3 2 3l1-1v-3h-1l-1 1-1-1v-1l1 1v-2l2 1-3-4-1-2-1 2-2 3v-2l2-1h-2l1-1v-1h-1l-1-2h1v1h2l-1-1 3 1c3 0 1-1 2-1h1l1-1h-1v-1l-1-1v0l-3 1v-2 1l1-1h1l-1-1-1-1-2-1v1l-1-1-1 1v-2h1v-1l-2-1v-2h1c-2 0-3-1-1-1 1 0-1 0 0 0l2-1c-1-1 0-1 1-2 2 1 2 0 3-1h1l-1-1h-1v-1c-2 0-1 1-2 2h-1l-1-2c1 2 1 2 2 1h-1c1-1 2-1 0-2v1l-3 1h2l-2 1v2l-1-2 1-2 2-2h-1l-1 1 1-2v-1c2 0 2-1 2-2h-1l-1-1 2-1h-1V7 6h-1l-1 1V5l1-3h-1V0v1l-1 2-1 1V3l-1-1v1h-1v1h-1l-1 3v2l-1-2V6c-2-1 0-1 0-3l-1-1h-1l-1 1V2c-2-2-2 0-2 0l-1-1-1-1h-1l1 2v1l2 2h-1l-1 1 1 1h-1V6l1 2h-1l-2 1 1 1-1 1h1l-4-1 1 1 2 2h-1l1 1-1 1-2 1h1v1l-2-1h-2l-1 1 2 1c1 3 3 0 3 3h-1l1 1v1l1 1 2 2h1-1v2h-1 1c-1 2 1 2 2 2v1h-3l-1 1-1-2h-1v1l-2 1h-1v1h-1 2v1h1l-2 1v-1c-2 0-2 1-2 2 0 0 1 0 0 0s-1-1-1 1h1l1 1h3v2h3-1c-1 0-3 1-1 2l-1 1-1-1-2 1h-2 2l-1-1 1-1h-3v-1l1-1h-1l-1 1 1-2h-1c1-2-1-1 2-2v-2-1l-2 1-1 1c0-1 0-2-1 0h-2l-1 1v3h-1v1l-1-1-1-2v-1h-2l1-1-1 1a2 2 0 01-1 0v0l-1-2v-1h-1l1 2h-1l1 3-1 1-2-1 1 1v1h-1l1 1v1h-2c1 1 1 2 3 2l-1 1 1 1h-1c-1 0 0 0 0 0l1 2 2 2-1 2-1-3h-1 1l-2-1v-1c-2 0-1 1-1 1v1l1-1v2h-1c-2-1 0-2-3-2v1l-1-1v1l1 1c1 1 0 2 3 1l1 2h2c1 1 0 1-1 1h-2 2v2l-1 1v1h1v1h-1l-1 1-1-1-2 1-1 1-1 1 1-1 1 2s0-1 0 0v-1 1a1 1 0 01-1 0l-2-3v-1c-1 0-1 1-1-1l-1 2-2 2-1 1 1-1v-1l1-1h-1l1-1-1-1-1-2h-1 1l1 1h2l-1-1 3 1 2-1h1l1-1h-2v-1h1l-1-1v2-2l-3 1v-1l1-1h1l-1-1h-1l-2-2v1l-2-1v-1l1 1c-1-2 1-1-1-2h-1v-2h2l-1-1h-2 1l2-1v-2c3 1 2 0 4-1 0-1 0 0 0 0v-1-1l-1 1v-1c-2 0-1 1-2 2h-2v-2l2 1h-1v-2l-1 1-2 1h2-2l-1 3-1-2 2-2 2-2h-1l-1 1 1-2-1-1c3 0 2-1 3-2h-2v-1l2-1h-1v-1-1h-1l-1 1-1-1 1-3v-2c-1 0 0 0 0 0h-1l-1 3v-1h-1v1l-1-1-1 1v1l-1 2v1l-1 1v-2h-1v-5h-2v1c-2-2-2-1-2 0l-1-2h-2v1l1 2 1 1v1h-1l1 2-1-1h-1l1 1v1h-2v2h1l-4-1 1 1 2 2h-1l1 1-1 1-2 1 1 1-3-1h-1l-1 1 1 1c2 2 3 0 4 2h-1v1l1 1-1 1h2c0 2 0 2 2 2h1l-1 1v1l-1 1h1c-1 1 1 1 2 1v1h-4v1h-1v-1h-2c0 1 1 0 0 0l-1 1h-1v1h-1 1l1 1h1l-3 1v-1l-1 2h-1v1h1v1h4v2h2c-1 0-3 1-1 1l-1 2-1-1s1 0 0 0h-1v3l-1-3-2 2-1 2-1 1v-1-1h-1l-1 1-2 2h-1l1-1 1-1h-1l1-1h-1v-1h-1v-1a9 9 0 00-1 0l1-1 1 2 1-1v-1l3 1h3v-1h-1v-1h1l-2-1v0l-2 1v-1l1-1h1l-1-1h-1l-2-1h-1-2v-1h1v-1l-1-1v-1l2-1h-3 1l1-1 1-2c3 1 2 0 3-1h1v-1l-1 1v-1l-3 1h-1v-1l1 1v-1s1-1-1-1v1l-2 1 1-1c0 2 0 1-1 1l-1 2-1-2 2-1 1-2h1-2l1-1h-1v-1l3-1h-2v-1l1-1-1-1 1-1h-2v1l-1-1 1-3v-2l-1 1-1 2v1-1l-1-1v1h-2v1l-1 2v1h-1v-1l-1-1v-2l-1-1h-1v1l-1-1c-1-2-1 0-1 0l-1-1-2-1v3c3 1 1 0 2 2h-1s1 0 0 0l1 1h-1-1l1 1-3 1h1l-1 1 2 1-4-2v1l3 2h-1l1 1-1 1h-3l1 1-2-1-2 1 1 1c2 2 3 0 4 2l-1 1s0-1 0 0l1 1-1 1h1l2 2h1-1l1 1-1 1h1c-1 1 1 1 2 1v1h-4v1h-1v-1h-2c0 1 1 0 0 0l-1 1h-2v1s0-1 0 0h1l1 1h1-3l-1 1h-1c0 1 1 0 0 0l-1 1h2v1h4l-1 2 2-1 1 1h-1s-2 0-1 1v1h-1-1v-1 2h-1v-1l-1 1-2 1h-1l-1-1h1c1-1 2-1 0-1v1h-3 2-2v2l-1-1 1-1 2-2h-1-1l1-1c2 0 2-1 2-2h-1l-1-1 2-1c-1 0 0 0 0 0h-1v-1h-1l-1 1v-1l1-2-1-1v-1 1l-1 1-1 1v-1h-1 1-2v1h-1c1 0 1 0 0 0l-1 2v1l-1-1v-1c-2 0 1-1 0-2l-1-1h-1l-1 1-2-1h-1l-1-1h-1l1 1v1l2 2h-2l1 1h-1v-1l1 2h-3l1 1h-1l1 1-4-1 1 1 2 1h-1l2 1-2 1h-2v1h1l-2-1-2 1 1 1c1 2 3 0 3 2h-1l1 1v1h1l2 1h1l-1 1 1 1h-2 1c-1 1 1 1 2 1v1h-3l-1 1-1-1h-1c-1 1 0 0 0 0l-2 1h-1c0 1 0 0 0 0h-1-1s1 0 0 0l-1-1h-1 2l-1-1 2 1-2-3-1-1-1 1-2 2h-1 1v-1l1-1h-1l1-1h-1l-1-1-1-1h1l1 1h1v-1l3 1 2-1 1 1v-1-1h-1 1l-2-1v0l-2 1v-1l1-1 1 1-1-1-1-1-2-1-1 1-1-1-1 1v-1h2l-1-1-1-1v-1h2l-2-1h-1 1l2-1v-1c3 1 2 0 3-1h1v-1l-1 1v-1l-2 1h-2v-1h2-1v-1a1 1 0 00-1 0v1l-2 1 1-1-1 1-1 2-1-2 2-1 1-1 1-1h-1l-1 1 1-2h-1c3 0 2-1 3-2h-2l1-1v-1-1l-2 1-1-1 1-2v-1h-1l-1 1v0h-1v1l-1-1-1 1-1 2v1h-1v-1h-1v-2l-1-1h-2c-1-2-1-1-1 0l-1-1-2-1v1l1 2c2 0 0-1 1 1h-1l1 1h-2l1 1-2 1v1h1l-4-1 1 1 2 1-1 1h1l-1 1-3 1h2l-3-1-1 1h-1l1 1c2 2 3 0 4 2h-1l1 1-1 1h2l2 1v1h1-1v1h-1l1 1c-1 1 1 1 2 1h-4v1h-1v-1h-2v1h-2v1h-1 1l1 1h1-3l-1 1h-1l-1 1h2c-1 0 0 0 0 0h4l-1 2h3-1s-2 0-1 1v1h-1c0-1 1-1-1-1v2l-1-1-2 1-1 1c-1 1-2 2-1 3l-1 1-3 1 2 1v1l1 1 1-1v1h1v-2h1l2-2v2h1l1 1 3-1v1s1 0 0 0h-1l-1 1-1 1h1v1h1v1h-2l-1-1v1l-3 1v-1l-1-1c0 1 1 1-1 1l1 1-1-1 1 2H8l-1-2H5v1H4l-1 1H2h3c-1 2-2 0-3 1v1l-1 1 2 1 1 1v-2l1-1h2v1H6l-1 2-1 2 1-1v1l1-1c0 3-2 0-2 3v1s-1 0 0 0l1 1 1-2v1h1v-2h2l1 1v-1h1l1-2h3v-1 2s-1 0 0 0v1l1-1v1l1 1h1l-2 1-1-1v-1h-1l-1 1h-2l1 1 1 1h-2l-1-1v1H9l-1 2h2a2 2 0 01-1 1l-1 1v2 1l-1 1-1 1h1v1H5l-1 1v-2H3l-1 1v1l-1 2h1l-1 2H0h1v1 1h1l1 1v-2l2 1-1 1-1 1v1l1-1v1l2-1-2 1-2 1 1 1-1 1h1l-1 1h1l-2 1v1h1-1v1h1c1 0 0 0 0 0zm293-46c0-1 0 0 0 0zm1 13c-1 0 1-1 0 0zM4 116c-1 0 1 0 0 0zm1-13c0 1 0-1 0 0zm8-23s1 0 0 0zm20-28s0 1 0 0zm2 0s1 0 0 0zm7 11zm3 13s0-1 0 0zm0 0zm20-15zm3 0c-1-1 0 0 0 0zm7 8zm20-32zm2-1s1 0 0 0zm7 13zm3 15s0-1 0 0zm0 0zm3-1c-1-1 0 0 0 0zm19-38s0 1 0 0zm2 0s1 0 0 0zm7 15zm3 17c0-1 0-1 0 0zm0 0zm-1-8c0 1 0 0 0 0zm7-14zm2 1zm36-33zm3-1c-1 0 0 0 0 0zm7 16zm2 18c0-1 0-1 0 0zm0 0zm23-18zm3-1c-1 0 0 0 0 0zm6 11zm2 1zm8-5zm7-12s1 0 0 0zm3 1s0-1 0 0z" fill="url(#linearGradient)"/>
</svg>