<svg xmlns="http://www.w3.org/2000/svg" fill-rule="evenodd" image-rendering="optimizeQuality" shape-rendering="geometricPrecision" viewBox="0 0 300 110.49">
<defs>
    <linearGradient id="linearGradient" x1="0" x2="0" y1="0" y2="1">
      <stop offset="0%" stop-color="#033"/>
      <stop offset="90%" stop-color="#f6fbef"/>
      <stop offset="100%" stop-color="#f6fbef"/>
    </linearGradient>
  </defs>
  <path d="M297.05 110.47c-.57-.22-1.15-.36-1.26-.68-.02-.08-.12-.07-.16-.13 1.3-.34-.82.53 1.62.24 1.13-1.55 2.45-1.04 2.75-3.79-.5.17-1.32.45-1.64.63-2.76 1.51-1.92 1.47-3.2-.38-.85.79-1.36 1.36-1.35.97l-2.63-.02c.8-.99 1.25-.88 1.92-2.26-1.4.27-1.46.43-3.07.55-1.03.08-2.5.49-3.02.5-1.05.02-1.32-.58-2.37-.54-.9.04-1.7.26-2.94-.12-.42-1.54.34.27-.04-1.54-.97 0-.68.64-.87-.02l-.01-.15v-.17l-.51.02h-.5c-1.16-.05-.85-.46-2.33-.48-.08-.06-.19-.24-.25-.16-.06.08-.2-.11-.28-.13-.63-.17-.02-.07-.69-.11-.33-.44-.34.2-.22-.97 1.63 1.04 1.64.74 2.95 1.07l.22.07c.86.22-.3.1.67.17 2.07.14 1.11.05 1.57-.65-.09 1.65-.04.31.34.6 1.07.81 2.27.31 3.32 1.08.4-.66.3-.99 1.02-1.57 1.07.7.4.63 1.1 1.16.16.12.17.84.7-.37.17.56.1.55.38.78l.12.08h.46c1.45-.12 1.35-.3 2.3-.89-.07-.08-.17-.27-.21-.2l-1.02-.81c-.67-.52-.72-.1-.68-1.13.63.7.33.5.94.55l3.14.8 1.34-1.2-.5-.5c-.4-.42-.09-.04-.4-.44.68-.54.63-.4 1.39-1.07.46-.41.78-.76 1.28-.97-3.14.34-2.21 1.53-6.2 1-1.16-.15-.4 0-1.26.05-1.98.12-1.23-.2-2.86-.54.33-.34.16-.21.67-.61l2.26-1.77c1.09 1.58.83.73 1.22.74l2.22-.11c.1-.28.12-.36.24-.66.17-.45.37-.87.5-1.08-3.14-1.99-.23-1.17-2.82-1.79 1.1-.74 1.29-.27 2.91-.08.2-.48-.19-.77 1.66-1.45-.35-.28-.08-.15-.62-.4-.36-.16-.54-.18-.96-.3.26-.34.14-.22.35-.58l.41-.78c.25-.56.35-1.04.47-1.75l-3.81 2.55-1.14-.54c-.83-.3-.72.14-1.37-.04-.23-1.12-.08.17.28-1.4.39.86.32.42.86-.09l.29-.35.3-.36c.26-.3.4-.4.65-.63l-2.3.59c.1-2.69 2.41-1.72 3.3-3.44-.37-.21.3-.05-.74-.28-2.64-.6-4.4.72-6.16 1.46-.86-.37-.34-.2-1.17-.66.62-.65.36-.29 1.1-.87-1.2-1.58-.54.28.07-1.9l-4.35 1.8c-2.6 1.16-2 1.26-5.02.7-.73-.93-.37-.3 0-.54 2.08-.03.64.6 2.6-1.15 1.16-1.03 1.85-.25 3.02-1.23-1.26-.58-2.9-.25-3.6-1.03-.53-.6-.6-.27-.26-1.04.95.18 1.42.76 2.42.9 1.44.19.53-.3 2.26.72.8.47-.4.4.9.31 1.26-.08 1.13-.56 1.2-.6-.51-.45-.6-.4-1.04-.72-.87-.66-.27-.36-.58-1.1-.27-.66-.5 0-.06-1.76.83 1.86.5.24 1.42 1.72.36.57-.06 1.47 1.32.54l.45-.26c.33-.25.58-.37.5-1.35.8.5.72.29 1.74.04 0 1.1-.28 1.28.03 1.87 1.14-.3.93-.85 1.77-1.68 2.2-2.16 1.2 1.4 2.13-1.34l-2.59-.38c-.45-1.1.43.84-.06-.53l-.13-.31a2.6 2.6 0 00-.1-.14c-.55-.7-.66-.11-.82-.82l1.77-1.1c.82-1.07.28-.98.47-2.33-2.01.38-1.04.78-2.8.9l-.94-.87c.53-.5 1.62-.72 2.17-.95-1.7-1.6-2.76-.21-4.01.43l-3.22.93c-1.45.22.16.01-1-.17-1.78-.27-1.11 1.27-4.31.27-2.14-.67-2.2-1.85-2.17-3.95.03-.01.1 0 .1.04.02.04.1.04.12.05.5.23.35.38 1.09.03l.01 1.65 1.22-.35c-.56 1.6.2.78.9 1.13l1.43.78c.78-.99.37-.48.77-1.43l2.19 1.13c.43-.39.5-.58 1.17-.87-.22-.78-.59-1.2-.1-2.08.59 1.19-.13.77 1 1.47l1.08-1.5c.45-.6.58-.83.55-1.26-.5-.25-.6-.03-1.01-.08l-1.46-.58c.6-1.01 1.37-.74 2.62-.4 1 .27.31.2 1.25-.06l3.63-.78c1.05-.27 1.14-.52 1.56-1.24l.2-.42c.35-.8.37-.76.04-1.38-.98 1.72-1.1.97-2.69 1.4-.76.22.59.43-1.25.08.35-1.29 1.46-1.63 2.1-2.5-1.75-.15-3.6 1.04-3.67-.88-.07-1.68-.18.18.48-1.17l-1.82.08-.06-1.2c.67-.54.21-.15 1.01-.41.62-.2.45-.07 1.2-.45-.63-.8-.49-.61-1.56-.85l.61-1.88c-1 .54-1.83 1.81-3.02 1.92-1.15.1-.12-.63-1.37.53-.85.79-.74.99-1.5 1.08-.04-.08-.08-.3-.08-.26l-.05-.47.06-.21 2.6-2.88c-1.7-.96-4.88 2.39-7.35 1.73-1.22-.32-.74-1.02.32-1.15.01.04.27.11 1.09.2.72.09 1.02-.11 1.55-.39 1.34-.7 2.53-.56 2.98-1.41-.07-.03-.2-.13-.23-.06l-1.41-.12c-1.38-.1-.63.33-1.7-.44.7-1.06 1.38.43 1.73-1.9l1.02 1.2.5-1.27c.14 1.15.94.64 1.8.46l.84-.15a4.9 4.9 0 002.65-2.37c-.97.27-1.54.77-2.56.67-.16-.02-.57.24-1.07-.36-.97-1.19.02-.38.26-.78l.24-.33c.53-.9.55-2.86.98-3.76.75-1.59.38-.45 1.48-1.02-1.7-.75-2.8-.43-4.85-.22.6-1.62.12-.17 1.55-.86l-.44-1.34c.37-.37.86-.03 1.37-.41-.66-1.08-.24-.83-1.54-.92l.72-.25c.6-.23.3 0 .96-.38-.05-.07-.13-.25-.15-.2-.03.06-.2-.25-.28-.4-.6-.92-.78-.87-1.02-2.06a7.99 7.99 0 01-1.86 3.23c-.8.95-.65 1.32-1.85 1.53l.26-2.1c-.6.49-.94 1.27-1.76 1.4-1.59.27-.36.13-.84-.16l2.3-1.95c-1.42.24-2.13 1.2-3.4.7.25-.47.12-.76 1.1-1.01l.68-.04c1.36-.12 2.13-.64 3.6-.18.24-1.38.48-1.27.98-2.29-1.46.06-1.94.3-2.91-.27l1.85-.45c.04 0 .13 0 .17-.02l.17-.03.19-.05.53-.28c1.75-1.33 1.69-.45 2.23-1.97-1.22.4-1.22.67-2.8.53.08-.09.19-.23.33-.46.26-.42 1.07-.64-.4-1.13.34-.02.25.06.6-.06 1.17-.43.26-.06.72-.37-.4-.86-.37-1.8-.74-2.37-.26.31-.25.37-.48.66-.33.4-.56.6-.74.85-.8 1.1 0 .66-1.08 1.73-.21-.3-.28-.07-.2-.76.18-1.24 1.34-1.38 1.49-2.5.04-.33-.58-1.17-.7-1.31l-.1-.13-.82-.81c-.78.45-.8.54-1.66.8l.82-2.26-2.57.67c.7-.25.91-.77 1.62-1.42-1.02-.55-.12.4-1.36-.35.75-1.3 2.52-1.8 2.36-3.88-1.16.19-3.97 2.13-1.88-.12-.06-.04-.17-.17-.18-.11l-.41-.38-.08-.14-.06-.15c-.43-.84.36-.32-1.68-1.31l-.2-.1-1.58-.61c.73-.52 1.18-.44 1.44-1.1-1.56-1.4.2.35-1.62-.45.05-.04.16-.14.19-.1l1.37-1.15c-.06-1.38-.8-.34-2.06.04.2-1.48-.05-2.29-.99-3.43-.42.78-.36.96-.07 1.8-1.03-.65-.18-.48-1.2-1.22.06 1.42.41 1.54.93 2.5l-.87.4-.2.12-.2.1c.62.5.82.56 1.52.88-.59.56-.46.37-.91 1.04 1.27.67.1.13 1.23.26-.22.92.33.74-1.05.7l-.57-.1c-1.35-.07-2.3-.05-3.39-.74.37 1.45 1.44 1.05 1.28 3.2.8-.14.53-.15 1.04-.05 1.18.23-.64.4 1.58.39l-.35.36c-.42.5-.2.13-.36.46-.4.79.33 0-.05.8-.71-.02-2.62-.4-3.75-.57.14 1.8-.38.6.16 1.81.23.53.54.06.62 1.57l1.19-.47c-.04.55-.41.76-.86 1.04 1.27.78.85.38 1.02.92l.52.87-2.38-.2 1.36 1.2c-.84 1.12.13.1-1.04.86l.8 1.49c-1.27-.14-.26-.31-.92.48a8.98 8.98 0 00-2.32-1.3c.72 1.45.33.49.3 1.81v.77l.65 1.75.08.1.17.22 1.12.36a5.86 5.86 0 01-2.54 1.13l-.24-.04c-.05 0-.16-.03-.24-.05l-.2.96-.06.16c-1.7-.08-2.37-1-3.49-1.16l.75 1.58.09.22c.02.01.07.04.15.13.43.42.29-.62.53.32a12.86 12.86 0 00-2.79 1.11c-.82-.7.44-.55-1.15-.42l1-1.33c-1.46-.67-.25.24-1.3-.75l1.7-1.08-2.97.18.65-.77c.22-.48-.31-.12 1.28-.81-.56-.25-1.03-.43-1.08-.92l1.5.41c.09-1.33.48-.92.77-1.38.66-1.09.02 0 .2-1.61-1.42.14-3.8.48-4.7.5-.48-.7.44 0-.06-.71-.21-.3.08.04-.45-.41l-.43-.32c2.77 0 .5-.14 1.97-.34.64-.1.3-.08 1.3.05-.2-1.91 1.13-1.55 1.6-2.84-1.37.6-2.55.6-4.24.66-.22.01-.67.08-.7.08-1.74.04-1.05.2-1.33-.62 1.41-.11-.04.36 1.55-.23-.57-.6-.4-.43-1.15-.92.89-.29 1.14-.33 1.9-.78-.07-.04-.2-.08-.25-.09l-.25-.09-1.08-.36c.65-.86 1.09-.96 1.15-2.22-1.27.66-.2.5-1.5 1.08.37-.74.45-.9-.08-1.6-1.18 1.02-1.5 1.74-1.23 3.05-1.58-.33-2.51-1.26-2.58-.04l1.72 1.03c.03-.05.16.04.23.08-2.28.7-.07-.85-2.03.4.33.59.89.5 1.8.97l-1.97.54-.25.1c-2.56.87-1.57.42-2.1 1.16l-.08.14c-.02.03-.07.1-.1.12l-.5.33c-.03-.05-.16.06-.23.1 2.6 2-.91.28-2.35.1-.2 1.85 2 2.3 2.95 3.46-1.55.66-.43-.18-1.7.3.88.58 1.15 1.04 2.02 1.27l-3.22-.6 1.04 2c-1.08-.23-1.11-.31-2.09-.7l-1.01.7-.14.13c-.14.12-.93.87-.87 1.16.18 1 1.64 1.12 1.85 2.21.11.61.03.42-.24.68-1.34-.95-.36-.56-1.35-1.53-.22-.22-.51-.4-.92-.76-.3-.26-.28-.3-.6-.58-.46.5-.44 1.34-.93 2.1.58.26-.57-.05.9.32.43.11.33.04.75.06-1.84.44-.83.64-.5 1 .18.21.3.34.4.42-1.97.12-1.97-.12-3.48-.48.66 1.35.59.57 2.78 1.75l.66.25.24.04.21.03.21.02 2.33.4c-1.23.5-1.82.3-3.65.24.62.9.93.8 1.21 2.03 1.85-.41 2.81.05 4.52.16.45.03.71.04.85.03 1.22.21 1.07.48 1.39.9-1.6.44-2.49-.42-4.26-.63l2.87 1.73c-.6.26.93.38-1.05.15-1.03-.12-1.45-.82-2.2-1.25l.33 1.87c-1.5-.19-1.3-.52-2.32-1.36a7.03 7.03 0 01-2.33-2.87c-.3 1.06-.52 1.02-1.27 1.84-.12.13-.32.4-.35.35-.03-.04-.13.11-.19.17.82.33.45.13 1.2.33l.9.23c-1.63.08-1.1-.14-1.93.82.65.34 1.25.04 1.72.36l-.55 1.19c1.79.6 1.18-.67 1.93.76-1.61-.12-2.75-.27-3.9-.2-.39-.65-.21-.48-1.4-.56l.75-.25c.64-.22.32 0 1.01-.37-.05-.06-.13-.24-.16-.2-.02.07-.2-.24-.29-.38-.63-.9-.82-.86-1.08-2.03a7.7 7.7 0 01-1.96 3.17c-.85.94-.68 1.3-1.95 1.51l.27-2.07c-.63.48-.98 1.26-1.85 1.39-1.67.25-.37.12-.89-.17l2.42-1.92c-1.49.24-2.23 1.19-3.58.7.26-.47.14-.76 1.16-1 .12 0 .35 0 .72-.04 1.44-.12 2.25-.63 3.8-.18.25-1.35.5-1.25 1.03-2.24-1.54.06-2.04.28-3.07-.27l1.96-.44.18-.02.18-.03.2-.05.56-.28c1.84-1.31 1.78-.45 2.34-1.94-1.28.4-1.28.66-2.94.53.08-.08.19-.23.34-.46.28-.41 1.13-.62-.42-1.11.35-.02.27.06.63-.06 1.24-.42.27-.06.76-.37-.42-.84-.4-1.77-.78-2.32-.27.3-.26.36-.5.64-.35.4-.6.6-.79.84-.83 1.08 0 .65-1.14 1.7-.22-.28-.3-.07-.2-.75.18-1.21 1.4-1.35 1.56-2.45.05-.33-.61-1.15-.73-1.29l-.12-.13-.85-.8c-.83.45-.85.54-1.76.79l.87-2.21-2.7.65c.72-.25.95-.76 1.7-1.4-1.08-.54-.13.4-1.44-.34.8-1.29 2.66-1.78 2.5-3.82-1.23.19-4.2 2.1-2-.12-.06-.04-.17-.16-.19-.11l-.42-.37-.09-.13-.06-.16c-.45-.82.39-.31-1.77-1.28l-.22-.1-1.66-.6c.77-.51 1.24-.43 1.52-1.09-1.65-1.37.21.35-1.7-.44.05-.04.16-.13.19-.08l1.45-1.14c-.06-1.35-.85-.33-2.18.04.22-1.45-.05-2.25-1.04-3.38-.44.78-.38.95-.07 1.77-1.1-.63-.2-.46-1.26-1.19.05 1.4.42 1.5.97 2.46l-.91.4-.21.1-.22.1c.65.5.86.56 1.6.87-.62.55-.48.37-.96 1.02 1.34.66.12.14 1.3.26-.23.9.35.73-1.1.69l-.6-.1c-1.43-.07-2.42-.05-3.58-.73.4 1.43 1.51 1.04 1.35 3.15.84-.14.55-.15 1.1-.05 1.24.22-.68.39 1.66.38l-.37.36c-.44.5-.2.12-.38.45-.42.78.36 0-.05.79-.56-.02-1.8-.23-2.89-.4v-.01a.77.77 0 01.14-.14c0-.03.02-.1.08-.24l.64-1.7c-.96.17-1.54 1.16-3 1.24-.03-.05-.04-.14-.05-.17l-.17-1.04-.2.06-.21.04c-.3.02-1.16-.34-2.18-1.21l.96-.39.14-.24.07-.1.56-1.9v-.82c-.03-1.44-.36-.4.26-1.96a7.5 7.5 0 00-2 1.4c-.56-.85.3-.67-.79-.52l.7-1.6c-1.02-.82-.18.28-.9-.92l1.17-1.32-2.04.22.44-.94c.15-.58-.21-.15.88-.99-.39-.3-.7-.52-.74-1.12l1.02.5c.07-1.62.34-1.11.54-1.68.45-1.32.01 0 .13-1.96-.97.17-2.6.59-3.22.61-.33-.86.3 0-.05-.86-.14-.36.06.05-.3-.5l-.3-.39c1.9 0 .34-.17 1.35-.42.44-.1.21-.1.9.06-.14-2.32.77-1.89 1.1-3.45-.95.73-1.76.72-2.92.8-.14 0-.46.1-.48.1-1.19.05-.72.25-.9-.75.96-.14-.04.44 1.05-.29-.39-.72-.28-.51-.79-1.12.61-.34.78-.4 1.31-.94-.05-.05-.14-.1-.17-.12l-.17-.11-.75-.45c.45-1.04.75-1.16.8-2.7-.88.8-.15.62-1.03 1.32.25-.91.3-1.1-.06-1.95a4.82 4.82 0 00-.85 3.71c-1.08-.4-1.72-1.52-1.77-.04l1.18 1.26c.02-.06.11.05.16.09-1.56.86-.05-1.03-1.4.48.24.72.62.63 1.25 1.2l-1.36.65-.17.11c-1.76 1.07-1.08.51-1.45 1.41l-.05.17-.06.15-.35.4c-.02-.05-.11.08-.16.13 1.8 2.43-.62.33-1.61.12-.14 2.25 1.38 2.79 2.02 4.2-1.06.8-.29-.21-1.17.38.6.7.8 1.26 1.4 1.53l-2.21-.72.7 2.43c-.73-.27-.76-.38-1.43-.86l-.7.87-.09.15c-.1.15-.63 1.06-.6 1.42.13 1.2 1.13 1.36 1.27 2.69.09.74.02.5-.16.82-.92-1.16-.25-.68-.93-1.86-.15-.27-.35-.49-.63-.93-.2-.31-.19-.37-.41-.7-.32.6-.3 1.63-.64 2.55.4.33-.39-.06.62.4.3.13.22.04.51.07-1.26.53-.56.77-.34 1.22.12.25.21.4.28.5-1.36.15-1.36-.14-2.4-.58.46 1.64.4.7 1.91 2.13l.46.3c.04.03.12.05.16.06l.15.03.14.02 1.6.48c-.84.61-1.25.36-2.5.3.42 1.09.63.97.83 2.46 1.27-.5 1.93.07 3.1.2.3.04.49.04.58.04.84.27.73.58.95 1.1-1.1.53-1.7-.51-2.92-.77l1.97 2.1c-.42.33.64.47-.72.19-.7-.15-.99-1-1.5-1.52l.22 2.27c-1.04-.22-.9-.63-1.6-1.66a9.39 9.39 0 01-1.6-3.48c-.2 1.29-.35 1.23-.87 2.23-.08.16-.21.5-.24.43-.02-.05-.08.14-.13.2.56.4.3.17.83.42l.62.27c-1.13.1-.76-.17-1.33 1 .44.41.86.04 1.18.44l-.38 1.44c1.23.75.81-.81 1.33.94-1.77-.24-2.7-.58-4.16.23.94.62.62-.61 1.27 1.1.36.97.38 3.1.84 4.07l.2.35c.21.44 1.06-.44.22.84-.42.64-.77.37-.91.39-.88.1-1.37-.43-2.2-.73.42 1.02 1.33 2.24 2.28 2.57l.72.16c.74.19 1.43.74 1.55-.5l.42 1.37.88-1.29c.3 2.5.9.9 1.49 2.05-.92.82-.28.37-1.46.48l-1.22.12c-.03-.08-.13.03-.2.07.4.93 1.42.77 2.57 1.53.45.3.71.52 1.33.43.7-.1.92-.18.93-.23.92.15 1.32.9.28 1.25-2.13.7-4.86-2.9-6.3-1.88L197.9 52l.05.22-.05.51c0-.05-.03.2-.06.28-.65-.1-.56-.32-1.29-1.17-1.07-1.25-.2-.46-1.18-.57-1.02-.11-1.73-1.49-2.6-2.08l.53 2.03c-.92.26-.8.05-1.33.93.64.4.5.27 1.02.48.69.28.3-.13.87.46l-.05 1.29-1.57-.08c.58 1.46.48-.56.42 1.26-.06 2.07-1.65.78-3.16.95.56.94 1.5 1.3 1.81 2.7-1.57.38-.42.14-1.08-.08-1.25-.44-1.44.22-2.12-1.12.6-.49 1.13-1.2 1.41-1.83-.82.26-1.31.75-2.19.65-.14-.02-.5.23-.92-.36-.83-1.15.01-.36.22-.75l.21-.32c.45-.87.47-2.78.84-3.65.65-1.54.33-.44 1.27-1-1.47-.72-2.4-.41-4.16-.2.52-1.58.1-.17 1.33-.84l-.38-1.3c.32-.36.74-.03 1.18-.4-.57-1.05-.2-.8-1.33-.9l.62-.24c.52-.22.26 0 .82-.37-.04-.06-.1-.24-.12-.19-.03.06-.16-.24-.24-.38-.52-.9-.68-.85-.88-2a8.02 8.02 0 01-1.6 3.13c-.7.92-.56 1.28-1.59 1.48l.22-2.04c-.51.47-.8 1.24-1.5 1.37-1.36.25-.3.12-.73-.16l1.97-1.9c-1.21.24-1.81 1.17-2.92.69.22-.46.12-.75.95-.99.1 0 .28 0 .6-.04 1.16-.11 1.82-.62 3.09-.17.2-1.34.4-1.24.83-2.22-1.25.06-1.66.28-2.5-.27l1.6-.43.14-.02.15-.03.15-.04.47-.28c1.5-1.29 1.45-.44 1.9-1.91-1.04.4-1.04.65-2.39.52.07-.09.15-.23.28-.45.22-.4.92-.62-.35-1.1.3-.02.22.06.52-.06 1-.42.22-.06.62-.36-.34-.83-.33-1.75-.64-2.3-.22.3-.2.36-.41.64-.29.4-.48.6-.63.83-.69 1.06-.01.63-.93 1.68-.18-.28-.25-.07-.17-.75.15-1.2 1.14-1.33 1.27-2.41.04-.33-.5-1.15-.6-1.28a4.83 4.83 0 00-.1-.13l-.69-.79c-.67.44-.69.53-1.43.78l.71-2.19-2.2.65c.59-.25.78-.75 1.38-1.38-.87-.53-.1.39-1.16-.34.64-1.27 2.16-1.75 2.02-3.77-.99.18-3.4 2.07-1.61-.12-.06-.04-.14-.16-.16-.1l-.35-.37-.07-.14-.05-.15c-.36-.8.32-.3-1.44-1.27l-.17-.1-1.36-.59c.63-.5 1.01-.42 1.24-1.07-1.34-1.36.17.34-1.4-.44.05-.04.15-.13.17-.08l1.18-1.12c-.05-1.34-.7-.33-1.78.04a4 4 0 00-.84-3.34c-.36.77-.3.94-.06 1.75-.89-.63-.16-.46-1.03-1.18.05 1.38.35 1.49.8 2.43l-.75.4-.17.1-.18.1c.54.5.7.54 1.31.85-.5.54-.4.36-.78 1.01 1.09.65.1.13 1.05.26-.19.9.29.72-.9.68l-.48-.1c-1.16-.07-1.97-.05-2.91-.72.31 1.41 1.22 1.02 1.1 3.11.68-.14.44-.15.89-.05 1 .22-.55.39 1.35.38l-.3.35c-.36.49-.16.12-.3.45-.35.77.28 0-.05.78-.61-.02-2.25-.4-3.22-.56.12 1.76-.32.58.13 1.76.2.52.47.06.54 1.52l1.02-.45c-.03.54-.36.74-.74 1 1.1.76.73.38.87.9l.45.84-2.04-.2 1.17 1.19c-.72 1.08.11.09-.9.82l.7 1.45c-1.1-.14-.23-.3-.8.47a7.54 7.54 0 00-1.99-1.26l.09.19-1.47-1.49c.57-.69 1.46-.96 2.11-1.51-1.06-.53-1.91-.87-3.06-1.6l-1.42-.7c-.87-.73-.21-.45-.6-1.7.91.26.88.83 1.73 1.16.73.28 1.27.64 2.04.44l1.23-.23c0-.06-.03-.15-.04-.18l-.1-.86c.3-1.57.11-.15.51-.66l.13-.15c0-.03.03-.1.09-.25l.63-1.79c-.96.2-1.53 1.22-3 1.31l-.04-.18-.18-1.08c-.06.03-.16.05-.2.06l-.2.04c-.3.02-1.16-.36-2.19-1.27l.96-.4.15-.26.07-.11.55-1.98v-.86c-.02-1.5-.35-.42.26-2.05-.84.43-1.3.81-2 1.47-.56-.9.3-.7-.78-.54l.69-1.69c-1.01-.85-.18.3-.9-.96l1.17-1.37-2.04.23.45-.98c.15-.61-.22-.16.87-1.04-.38-.3-.7-.55-.74-1.17l1.03.53c.06-1.7.33-1.17.53-1.77.46-1.37.02 0 .13-2.04-.97.18-2.6.61-3.22.64-.33-.9.3 0-.04-.91-.14-.37.05.05-.3-.52l-.3-.4c1.9 0 .34-.19 1.35-.44.44-.11.2-.1.89.06-.13-2.43.78-1.98 1.1-3.61-.94.77-1.75.75-2.92.84-.14 0-.45.1-.48.1-1.18.05-.71.26-.9-.79.96-.14-.03.47 1.06-.3-.39-.75-.28-.54-.8-1.16.62-.37.79-.42 1.32-1l-.18-.12-.17-.12-.75-.46c.45-1.09.76-1.22.8-2.82-.87.84-.14.64-1.03 1.37.25-.94.3-1.14-.06-2.03a5.21 5.21 0 00-.84 3.87c-1.08-.42-1.72-1.59-1.77-.04l1.17 1.31c.03-.06.12.05.16.1-1.56.9-.05-1.08-1.4.5.24.76.62.66 1.25 1.25l-1.35.68a4.14 4.14 0 01-.18.12c-1.75 1.12-1.07.53-1.44 1.48l-.05.17-.07.16-.35.42c-.01-.06-.1.08-.15.13 1.79 2.55-.63.35-1.62.13-.14 2.35 1.38 2.91 2.02 4.39-1.06.84-.28-.23-1.16.4.6.73.8 1.31 1.39 1.6l-2.2-.76.7 2.55c-.74-.29-.76-.4-1.43-.9l-.7.9-.1.16c-.1.15-.63 1.1-.59 1.48.13 1.27 1.13 1.42 1.27 2.81.08.78.02.54-.16.87-.92-1.21-.25-.72-.93-1.96-.15-.27-.35-.5-.64-.96-.2-.33-.19-.39-.4-.74-.32.64-.3 1.7-.65 2.67.4.35-.38-.07.62.42.3.14.23.04.52.07-1.27.56-.57.8-.35 1.28l.28.52c-1.35.15-1.35-.15-2.4-.6.47 1.7.42.72 1.92 2.22l.46.32.15.05.15.03.15.02 1.6.5c-.84.65-1.26.38-2.51.31.43 1.15.64 1.03.84 2.59 1.26-.52 1.92.07 3.1.2l.58.04c.83.28.73.62.95 1.15-1.1.56-1.7-.53-2.92-.8l1.97 2.2c-.42.34.64.49-.73.2-.7-.16-.99-1.05-1.5-1.6l.22 2.38c-1.03-.24-.9-.66-1.6-1.73a10 10 0 01-1.59-3.65c-.2 1.35-.36 1.3-.87 2.34-.08.16-.22.51-.24.44-.02-.06-.09.15-.13.22.56.42.3.17.82.43l.62.29c-1.12.1-.76-.18-1.33 1.04.45.43.86.05 1.18.46l-.38 1.5c1.23.79.82-.84 1.33.98-1.73-.24-2.66-.59-4.08.2-.17-.65-.24-1.27-.52-1.69-.27.32-.25.37-.5.66-.34.4-.58.62-.76.86-.83 1.1-.01.66-1.13 1.74-.22-.3-.3-.07-.2-.77.18-1.24 1.39-1.38 1.54-2.5.05-.34-.6-1.19-.72-1.33l-.12-.14-.84-.8c-.81.44-.84.54-1.73.8l.86-2.27-2.67.67c.72-.25.95-.77 1.68-1.43-1.06-.55-.13.4-1.42-.35.78-1.32 2.62-1.82 2.46-3.91-1.2.19-4.13 2.15-1.96-.12-.06-.04-.17-.17-.19-.11l-.42-.38-.08-.14-.07-.15c-.44-.84.38-.33-1.74-1.32l-.21-.1-1.64-.62c.76-.52 1.22-.44 1.5-1.1-1.63-1.42.2.35-1.69-.46.06-.04.17-.14.2-.1l1.42-1.16c-.06-1.38-.83-.34-2.14.04.22-1.48-.05-2.3-1.03-3.46-.43.8-.37.97-.07 1.82-1.07-.66-.19-.48-1.24-1.23.05 1.43.42 1.55.96 2.52l-.9.4-.21.12c-.05.02-.15.06-.21.1.64.51.84.56 1.58.89-.61.56-.48.37-.95 1.04 1.32.68.11.14 1.28.27-.23.92.34.74-1.1.7-.02 0-.4-.08-.58-.1-1.4-.07-2.39-.05-3.52-.74.38 1.45 1.48 1.05 1.32 3.22.83-.15.55-.15 1.08-.06 1.23.23-.66.4 1.64.4l-.36.35c-.43.51-.2.13-.37.47-.41.8.35 0-.05.8-.74-.02-2.73-.4-3.9-.57.14 1.82-.4.6.16 1.83.24.53.56.06.65 1.57l1.24-.47c-.05.56-.43.77-.9 1.05 1.32.78.88.37 1.06.92l.54.88-2.47-.21 1.41 1.22c-.87 1.12.14.1-1.08.86l.84 1.5c-1.32-.14-.28-.31-.96.48a9.37 9.37 0 00-2.42-1.3c.75 1.45.35.49.32 1.82v.77l.67 1.76.08.1.18.23 1.17.36a6.23 6.23 0 01-2.65 1.13l-.24-.04-.25-.05-.22.97c0 .03-.02.11-.06.16-1.74-.08-2.44-.98-3.59-1.16l.02-.03c-1.46.06-1.94.3-2.91-.27l1.85-.45.17-.02.17-.03.19-.05.53-.29c1.74-1.33 1.68-.45 2.22-1.98-1.21.41-1.21.68-2.78.54.07-.08.17-.23.32-.46.26-.42 1.07-.64-.4-1.14.33-.02.25.06.6-.06 1.17-.43.25-.06.72-.37-.4-.85-.38-1.8-.75-2.37-.25.31-.24.37-.47.66-.33.4-.57.61-.74.86-.8 1.1 0 .65-1.08 1.73-.21-.3-.28-.07-.19-.77.17-1.24 1.33-1.38 1.48-2.5.04-.33-.58-1.18-.7-1.31l-.1-.14-.82-.8c-.77.44-.8.54-1.66.79l.82-2.26-2.56.67c.69-.25.91-.77 1.62-1.42-1.02-.55-.12.4-1.36-.35.75-1.32 2.51-1.82 2.35-3.9-1.15.19-3.96 2.14-1.88-.12-.06-.04-.16-.16-.18-.11l-.4-.38-.08-.14-.06-.15c-.43-.84.36-.33-1.68-1.31l-.2-.11-1.57-.6c.73-.53 1.17-.44 1.44-1.11-1.56-1.41.2.35-1.62-.46.05-.04.16-.13.18-.09l1.37-1.16c-.05-1.38-.8-.33-2.06.04a3.8 3.8 0 00-.98-3.44c-.42.79-.36.96-.07 1.8-1.03-.64-.18-.47-1.19-1.22.05 1.43.4 1.55.92 2.51l-.86.41-.2.1c-.04.03-.15.07-.2.12.6.5.8.56 1.51.88-.59.55-.46.37-.9 1.04 1.25.67.1.13 1.22.26-.22.93.33.74-1.05.7-.03 0-.4-.08-.56-.09-1.35-.08-2.3-.06-3.39-.75.37 1.46 1.43 1.05 1.28 3.21.8-.14.52-.15 1.04-.05 1.17.23-.64.4 1.57.4l-.35.35c-.42.5-.19.13-.36.46-.4.8.34 0-.04.8-.72-.01-2.62-.4-3.75-.56.14 1.81-.37.6.16 1.82.23.53.54.06.62 1.57l1.19-.48c-.04.56-.42.77-.86 1.05 1.27.78.84.38 1.01.92l.52.87-2.37-.2 1.36 1.21c-.84 1.12.13.1-1.04.86l.8 1.5c-1.26-.15-.26-.32-.92.48a8.92 8.92 0 00-2.32-1.3c.72 1.44.34.48.3 1.8l.01.78.64 1.75.08.1.17.23 1.12.35a5.8 5.8 0 01-2.54 1.13c-.06 0-.18-.03-.23-.04-.05 0-.16-.03-.24-.05l-.21.97c0 .03-.02.11-.05.16-.9-.04-1.5-.32-2.05-.6.16-.93.27-1.96.51-2.56.72-1.74.37-.48 1.42-1.12-1.64-.82-2.67-.47-4.64-.23.58-1.78.11-.2 1.48-.95l-.42-1.46c.36-.4.82-.03 1.32-.46-.64-1.18-.24-.9-1.48-1l.69-.29c.57-.24.29 0 .91-.41-.04-.07-.12-.27-.14-.21-.03.07-.18-.28-.27-.43-.57-1.02-.74-.96-.97-2.27a9.17 9.17 0 01-1.78 3.54c-.77 1.04-.62 1.45-1.77 1.68l.25-2.3c-.58.53-.9 1.39-1.68 1.54-1.52.28-.34.14-.8-.19l2.19-2.14c-1.35.27-2.03 1.33-3.25.78.24-.52.12-.85 1.06-1.12.1 0 .3 0 .65-.04 1.3-.12 2.04-.7 3.45-.19.22-1.51.45-1.4.93-2.5-1.4.06-1.86.31-2.8-.3l1.79-.5.15-.02.17-.03c.04 0 .13-.03.18-.05l.5-.31c1.68-1.46 1.62-.5 2.13-2.16-1.16.44-1.16.73-2.66.59.07-.1.17-.26.3-.52.26-.45 1.03-.69-.38-1.24.32-.03.24.07.58-.07 1.12-.47.24-.07.68-.4-.37-.94-.35-1.98-.7-2.6-.25.34-.24.4-.46.72-.32.45-.54.68-.7.94-.77 1.2-.02.72-1.04 1.9-.2-.32-.27-.09-.18-.84.16-1.36 1.27-1.5 1.41-2.74.04-.36-.56-1.28-.66-1.44l-.11-.15-.77-.88c-.75.5-.77.6-1.6.88l.8-2.47-2.47.73c.66-.28.88-.85 1.55-1.56-.98-.6-.12.43-1.3-.38.72-1.44 2.41-1.99 2.26-4.27-1.11.21-3.8 2.35-1.8-.13-.06-.04-.16-.18-.18-.12l-.39-.4-.07-.16-.06-.17c-.4-.92.35-.35-1.6-1.43l-.2-.12-1.5-.66c.7-.58 1.12-.48 1.38-1.22-1.5-1.53.18.4-1.56-.49.05-.05.16-.15.18-.09l1.31-1.27c-.05-1.51-.76-.37-1.97.04.2-1.62-.04-2.51-.94-3.77-.4.87-.34 1.06-.07 1.98-.98-.71-.17-.52-1.14-1.34.05 1.56.39 1.69.88 2.75l-.82.44-.2.12-.2.12c.6.55.79.6 1.47.96-.57.61-.45.4-.88 1.14 1.21.74.1.15 1.18.29-.21 1 .31.81-1 .76-.04 0-.39-.09-.55-.1-1.29-.08-2.2-.07-3.24-.82.36 1.6 1.37 1.15 1.22 3.52.77-.17.5-.17 1-.06 1.12.24-.62.42 1.5.42l-.33.4c-.4.55-.18.14-.34.5-.38.87.32 0-.05.88-.68-.03-2.5-.45-3.58-.63.13 1.99-.36.66.14 2 .22.57.52.06.6 1.71l1.14-.52c-.04.61-.4.84-.83 1.15 1.22.85.82.41.98 1l.5.95-2.28-.22 1.3 1.34c-.8 1.22.13.1-1 .93l.78 1.63c-1.21-.15-.25-.34-.89.53a8.42 8.42 0 00-2.21-1.42c.68 1.58.31.53.28 1.98v.84l.62 1.92c.02.02.06.1.08.11l.16.25 1.07.39c-1.14.89-2.1 1.25-2.43 1.23l-.22-.04a.81.81 0 01-.23-.06l-.2 1.05c0 .03-.02.13-.05.18-1.62-.09-2.27-1.08-3.34-1.27l.71 1.74.1.24.14.14c.45.5.25-.88.57.65l-.11.84c0 .03-.04.1-.04.17l1.36.22c.87.2 1.46-.15 2.28-.43.95-.32.9-.87 1.93-1.12-.44 1.2.3.94-.68 1.65l-1.58.67c-1.27.72-2.22 1.05-3.4 1.56.72.54 1.71.8 2.35 1.48l-1.67 1.47c1.87.31 1.98-.2 3.23-.45l.11-.01.25-.1.55-.61 1.16-.52c-.1.05-.2.1-.23.28l-.43.58c-.57.82-1.32 1.19-2.3 1.7l.56 1.02.05.2c.9-.13 1.8-.42 2.33-.03-.82 1.62-2.25.36-3.39.3-2.59-.15.55.65-1.22.4l-.07-.1-.74-.74c-.22.12-.38.22-.5.3-.23-.2-.44-.41-.65-.61l.38-1.04-2.35.62c.63-.24.83-.72 1.48-1.32-.94-.51-.11.36-1.24-.33.68-1.21 2.3-1.67 2.15-3.6-1.05.18-3.63 1.98-1.72-.11-.05-.04-.15-.15-.17-.1l-.37-.35-.07-.13-.05-.15c-.4-.77.33-.3-1.54-1.2l-.18-.1-1.45-.57c.67-.48 1.08-.4 1.32-1.02-1.43-1.3.18.32-1.48-.42.05-.04.15-.13.17-.08l1.25-1.08c-.05-1.27-.73-.3-1.88.04a3.54 3.54 0 00-.9-3.18c-.38.72-.33.89-.06 1.67-.95-.6-.17-.44-1.1-1.13.05 1.32.37 1.42.85 2.32l-.8.38-.18.1c-.04.02-.13.06-.18.1.56.47.74.51 1.4.81-.55.52-.44.35-.85.96 1.16.63.1.13 1.13.25-.2.85.3.69-.96.64-.03 0-.37-.08-.52-.08-1.23-.07-2.1-.06-3.1-.69.34 1.35 1.31.98 1.17 2.97.73-.13.48-.14.95-.05 1.07.2-.59.37 1.44.36l-.32.34c-.38.46-.17.12-.32.42-.37.74.3 0-.05.75-.58-.02-2-.3-3.03-.47-.07-.72-.26-.15.29-1.39a7.56 7.56 0 00-2.03 1.27c-.58-.77.3-.6-.8-.47l.7-1.46c-1.03-.73-.18.26-.92-.82l1.2-1.2-2.08.2.45-.84c.15-.53-.22-.14.9-.9-.4-.27-.72-.47-.76-1.01l1.04.46c.07-1.47.34-1.01.55-1.53.46-1.19.01 0 .13-1.77-.99.16-2.65.53-3.27.56-.34-.78.3-.01-.05-.79-.14-.32.06.04-.3-.45l-.31-.35c1.93 0 .35-.16 1.37-.38.45-.1.22-.09.91.05-.14-2.1.8-1.7 1.11-3.12-.95.67-1.77.65-2.95.73-.15 0-.47.09-.5.09-1.2.04-.72.22-.91-.68.98-.13-.03.4 1.07-.26-.39-.65-.28-.47-.8-1.01.62-.31.8-.36 1.33-.86-.05-.04-.14-.08-.18-.1l-.17-.1-.76-.4c.46-.95.76-1.06.8-2.44-.87.72-.13.55-1.03 1.18.25-.82.3-.99-.06-1.75a3.99 3.99 0 00-.86 3.35c-1.1-.37-1.75-1.38-1.8-.04l1.2 1.13c.02-.05.11.04.16.08-1.59.78-.05-.93-1.42.44.23.65.62.56 1.26 1.08l-1.37.59-.18.1c-1.78.96-1.1.46-1.47 1.28l-.05.14-.07.14-.35.37c-.02-.05-.1.07-.16.1 1.82 2.2-.63.31-1.64.12-.14 2.03 1.4 2.52 2.06 3.8-1.08.72-.3-.2-1.19.34.62.63.8 1.13 1.41 1.38l-2.24-.65.72 2.2c-.75-.25-.77-.34-1.45-.78l-.71.79a4.83 4.83 0 00-.1.13c-.1.13-.64.96-.6 1.28.12 1.1 1.14 1.23 1.29 2.43.08.68.02.46-.17.75-.94-1.05-.25-.62-.95-1.69-.15-.23-.35-.44-.64-.83-.2-.29-.19-.34-.41-.64-.33.55-.3 1.47-.65 2.3.4.3-.4-.05.63.37.3.12.23.04.52.06-1.29.49-.58.7-.35 1.1.12.23.22.37.28.46-1.37.13-1.37-.13-2.43-.53.47 1.49.41.63 1.94 1.93l.47.28c.03.02.12.04.16.04l.15.03.14.02 1.62.43c-.85.55-1.26.32-2.54.27.44.99.65.88.85 2.23 1.28-.45 1.96.06 3.15.17l.6.04c.84.24.73.53.96 1-1.12.48-1.74-.46-2.97-.7l2 1.9c-.42.3.65.43-.73.17-.72-.13-1.01-.9-1.53-1.37l.22 2.05c-1.05-.2-.9-.57-1.62-1.5a8.08 8.08 0 01-1.62-3.14c-.2 1.16-.36 1.11-.89 2.01-.07.14-.21.45-.24.39-.02-.05-.09.12-.13.19.57.36.31.14.84.36l.62.25c-1.13.1-.77-.15-1.34.9.45.38.87.04 1.2.4l-.39 1.3c1.25.68.83-.73 1.35.85-1.8-.21-2.74-.52-4.23.21.96.56.64-.55 1.3 1 .37.88.39 2.8.85 3.67l.2.32c.22.4 1.08-.4.23.76-.43.58-.79.34-.93.36-.9.1-1.39-.4-2.23-.66.42.91 1.35 2.02 2.31 2.32l.74.14c.74.18 1.45.67 1.57-.45l.43 1.24.9-1.16c.3 2.26.9.81 1.5 1.84-.93.75-.28.34-1.48.44l-1.23.1c-.04-.06-.14.04-.2.07.39.83 1.43.7 2.6 1.38.46.26.72.47 1.35.38.71-.09.94-.16.95-.2.92.13 1.34.81.28 1.13-2.16.63-4.94-2.63-6.4-1.7l2.25 2.81.05.2-.04.47c0-.05-.03.17-.07.25-.66-.09-.57-.29-1.3-1.05-1.1-1.13-.2-.42-1.2-.52-.66-.07-1.2-.59-1.72-1.1.12.01.28 0 .56-.15a4.41 4.41 0 00-1.08-.33 3.47 3.47 0 00-.4-.3l.07.25c-.77-.07-1.53.08-2.62.2.5-1.36.1-.14 1.29-.73l-.37-1.12c.31-.32.72-.02 1.14-.35-.55-.91-.2-.7-1.28-.78l.6-.22c.5-.19.25 0 .8-.32-.05-.05-.11-.2-.13-.16-.02.05-.16-.21-.23-.33-.5-.78-.65-.74-.85-1.75a6.82 6.82 0 01-1.54 2.73c-.67.8-.54 1.12-1.54 1.3l.21-1.78c-.5.4-.77 1.07-1.45 1.19-1.32.22-.3.1-.7-.15l1.9-1.64c-1.17.2-1.76 1.02-2.82.6.21-.4.11-.66.92-.86.1 0 .27 0 .56-.03 1.13-.1 1.78-.54 3-.15.19-1.17.4-1.08.8-1.93-1.2.05-1.6.24-2.41-.24l1.54-.37.14-.02c.03 0 .11-.01.14-.03.04 0 .12-.03.15-.04l.45-.24c1.45-1.13 1.4-.39 1.85-1.67-1.01.34-1.01.57-2.32.46.06-.08.15-.2.27-.4.21-.35.9-.53-.34-.96.29-.02.22.05.5-.05.98-.36.22-.05.6-.3-.33-.73-.3-1.53-.61-2-.22.26-.2.3-.4.55-.27.34-.47.52-.62.72-.66.93 0 .55-.9 1.46-.17-.25-.23-.06-.15-.64.14-1.05 1.1-1.16 1.23-2.11.03-.28-.48-1-.58-1.1l-.1-.12-.66-.68c-.65.37-.67.45-1.39.67l.69-1.9-2.14.56c.58-.21.76-.65 1.35-1.2-.85-.46-.1.33-1.13-.3.62-1.1 2.09-1.52 1.96-3.28-.96.16-3.3 1.8-1.57-.1-.04-.04-.13-.14-.15-.1l-.34-.31-.06-.12-.05-.13c-.35-.7.3-.27-1.4-1.1l-.16-.1-1.31-.51c.6-.44.98-.37 1.2-.93-1.3-1.19.16.3-1.35-.38.04-.03.13-.12.15-.07l1.14-.99c-.04-1.15-.66-.28-1.71.03a3.24 3.24 0 00-.82-2.9c-.35.67-.3.81-.06 1.52-.85-.54-.15-.4-.99-1.02.05 1.2.34 1.3.77 2.1l-.72.35-.17.1c-.03.01-.12.04-.17.08.52.43.68.47 1.27.74-.5.47-.39.31-.76.88 1.05.57.09.11 1.02.22-.18.78.27.63-.87.59-.02 0-.33-.07-.47-.08-1.12-.07-1.9-.05-2.82-.63.31 1.23 1.2.89 1.06 2.7.67-.11.44-.12.87-.03.98.19-.53.33 1.3.32l-.28.3c-.35.43-.16.11-.3.4-.33.67.28 0-.04.67-.6-.02-2.18-.34-3.11-.48.1 1.53-.32.5.12 1.53.2.45.45.05.52 1.33l.99-.4c-.03.47-.34.65-.72.88 1.06.66.7.32.85.77l.43.74-1.97-.17 1.13 1.02c-.7.94.11.08-.87.72l.67 1.26c-1.05-.12-.22-.26-.76.4a7.5 7.5 0 00-1.93-1.09c.6 1.22.28.41.25 1.53v.65l.54 1.47.06.1c.03.02.11.14.15.18l.92.3c-1 .68-1.82.96-2.1.95-.06 0-.16-.03-.2-.04a.86.86 0 01-.2-.04l-.17.81c-.01.02-.02.1-.05.14-1.41-.07-1.97-.84-2.9-.98l.56 1.22c-.3.1-.62.13-1.32.07.06-.07.15-.2.26-.4.22-.35.9-.53-.33-.95.28-.02.21.05.5-.05.98-.36.21-.05.6-.31-.33-.73-.31-1.53-.62-2-.21.26-.2.3-.4.55-.27.34-.46.52-.6.72-.67.93-.01.56-.9 1.46-.18-.24-.24-.06-.16-.64.14-1.04 1.1-1.16 1.23-2.1.03-.29-.49-1-.58-1.12l-.1-.11-.67-.68c-.65.38-.67.46-1.38.67l.68-1.9-2.13.56c.57-.21.76-.65 1.34-1.2-.85-.46-.1.34-1.12-.3.62-1.1 2.09-1.52 1.95-3.28-.96.17-3.3 1.8-1.56-.1-.05-.04-.14-.14-.15-.1l-.34-.31-.07-.12-.04-.13c-.36-.7.3-.27-1.4-1.1l-.17-.1-1.3-.5c.6-.45.97-.37 1.2-.94-1.3-1.18.16.3-1.36-.38.05-.04.14-.12.16-.07l1.14-.98c-.05-1.16-.67-.28-1.72.03a3.23 3.23 0 00-.81-2.9c-.35.67-.3.82-.06 1.52-.86-.54-.15-.4-1-1.02.05 1.2.34 1.3.78 2.1l-.72.35-.17.1c-.04.01-.12.04-.17.08.51.43.68.47 1.26.75-.49.47-.38.3-.75.87 1.05.57.08.11 1.02.22-.19.79.27.63-.88.6-.02 0-.32-.08-.46-.09-1.13-.07-1.91-.05-2.82-.63.3 1.23 1.2.89 1.06 2.7.66-.12.44-.12.86-.04.98.2-.53.34 1.31.33l-.29.3c-.34.43-.15.11-.3.4-.32.66.28 0-.03.67-.6-.02-2.18-.34-3.12-.48.12 1.53-.31.5.13 1.53.2.45.45.05.52 1.32l.99-.4c-.04.48-.35.65-.72.89 1.06.65.7.32.85.77l.43.74-1.97-.17 1.13 1.02c-.7.94.1.08-.87.72l.67 1.26c-1.05-.12-.22-.26-.77.4a7.42 7.42 0 00-1.93-1.1c.6 1.23.28.42.25 1.54l.01.65.53 1.48.07.08c.03.04.1.15.14.18l.93.3c-1 .69-1.82.96-2.1.96-.06 0-.16-.03-.2-.04a.86.86 0 01-.2-.04l-.18.8-.04.14c-1.41-.07-1.97-.83-2.9-.98l.62 1.34.08.19c.02 0 .05.04.13.1.38.4.2-.67.49.5l-.1.65-.04.13 1.2.18c.74.14 1.26-.12 1.97-.34.82-.25.79-.67 1.67-.86-.37.93.26.73-.59 1.27l-1.36.52c-1.11.55-1.94.8-2.96 1.2.62.42 1.5.62 2.04 1.13L8.49 64.1c1.62.24 1.72-.15 2.8-.35h.1l.22-.08.48-.47 1-.4c-.09.04-.16.08-.2.22l-.37.44c-.5.63-1.15.92-2 1.31l.49.8.04.15c.78-.11 1.58-.33 2.03-.03-.71 1.25-1.96.27-2.95.22-2.38-.11.83.58-1.39.26-.66-.09-1.05-.6-1.5-.95l-.65 1.23c.84.62.39-.13.74.58l.45.48c.36.19.34.09.27-.01l.25.26c-.53.37-.74.63-1.1 1.04l1.77.24c1.24-.35-.15-.83 1.84.14l-1.25 1c-1.37.7-.88-.41-2.3.22-.42.18.74.38-.7.24-.78-.08-.56-.47-1.73-.52.7.92.07.84.73 1.37.86.7.17.78.5 1.85 1.38 0 1.47-.26 2.72-.62-.22.93-.67.83-1.41 1.22 1.47.06 1.44.77 2.88-.07l.4-.3c.08 1.13 1.71 3.24-1.7 2.45-1-.23-1.1-.62-1.56-1.14 0 1.57-.75.49.1 1.7.8 1.13 1.13.74 1.42 2.16.9-.28 1.02-.37 2.5.18l.2.08-1.2.7c-2.14.3-3.71-1.39-4.86-1.94.01 2.5.78 1.3 1.93 2.53-1.38 1.17-2.2-.41-2.97-.83-.05.12-.1.1-.1.44-.08 1.5.88 1.73 2.65 1.96 1.2.15 1.17.08 1.81-.44.5.73-.24-.15.18.85.44-.72.19-.82 2.04.08.04.02.13.05.19.1-.87.3-1.48.29-2.13.48-.7.2-6.93.91-5.37 3.28.62-.2.43-.14.81-.83.63.64.7.44 1.4.4.5-.03.76 0 1.2-.4-.05 1.23-2.23 2.73-3.93 1.82l.89 1.31.18.15c0-.04.04-.08.15-.1l1.14-.18c1.55-.2.58-.14 1.07-.75 1.58.74-.88.16 2.16.67l.18.03.65.3-.1-1.15c.44.21.25.18.62.2.2.03.34.03.43 0-.67.95-.1.94-.3 2.06.32.16.9.33 1.05.34h.17a2 2 0 01.42-.26l-.18.44c.02.58-.09.08.14.79-.74-.21-.63-.3-1.25.66-.8-.28-.47-.09-1.14-.48L8.12 89.7l-.06 2.08c-1.3.15-1.92-.42-3.01-.85.3 1.02.5.88.82 1.76-.51-.11-1.27-.38-1.42-.39-1.16-.09-.49-.1-1.3.34.33.7-.08.11.53.52l.95.5c-.3.83-.36.63-.6 1.3.77 0 1.08-.34 1.9.06-.8.4-1.82 1.02-2.64 1.44.77.08.7.26 1.12.73.42-1.08.81-.05 1.48-.2C8.5 96.4 8 95.68 9.27 95.6c-.6 1.65-2.33 2.29-3.62 3.08.92.5 1.68-.02 2.54-.12 1.3-.16 2.6.14 3.2-.88.02-.02.04-.1.05-.12l.48-.48L12 97l.15-.42c.46.3-.01.09.58.27.69.2 1 .03 1.43-.18.53-.26-.71-.4.54-.22l-.14.59c-.18.25-.33.31-.57.47-.42.29-1 .64-1.5.96-.2.14-.43.3-.68.4-.64.28-.73.19-.92.24-.93.28-.47-.14-.8 1.07-.64-.67-1.05-.74-2.05-.6l-.17.03c-.9.17-1.33.11-1.74.45 1.17.73.94.09 1.14 1.22-.37.22.31-.04-.56.3-.2.08-.55.19-.63.2-.88.09-.88-.12-1.26-.57-.05.06-.1.09-.12.19-.03.11-.2.29-.26.33-1.1.83-3.1-.56-4.41-.83l.86 1.55.9 1.33c.8-.49.58-.32.97-1.07.07 1.07-.59 1.77-.92 3.04l3.36.08a1.4 1.4 0 01.2-.09l.14-.16.17-.28.17-.34c3.66.09 2.75-.49 4.7-.76 1.06-.14.45.46 1.3-.55-.08 1.15-.04.83-1.06 1.33-1.04.5-1.06.5-2.21.42-.47.84-.21 1.33-1.37 1.57-2.2.45-5.18 1.85-7.19.25.07.85.36.3-.04 1.42.47.25.31.16 1.08-.03l-.19 1.26 1.13.37.16.09.34.15z" fill="url(#linearGradient)"/>
</svg>