<svg xmlns="http://www.w3.org/2000/svg" fill-rule="evenodd" image-rendering="optimizeQuality" shape-rendering="geometricPrecision" viewBox="0 0 400 300">
<defs>
    <linearGradient id="linearGradient" x1="0" x2="0" y1="0" y2="1">
      <stop offset="0%" stop-color="#e4c243"/>
      <stop offset="90%" stop-color="#f6fbef"/>
      <stop offset="100%" stop-color="#f6fbef"/>
    </linearGradient>
  </defs>
  <path d="M115.86 108c-.05-.2.08-.01 0 0zm7.71 49.64c1.05.08 2.22.38 3.39.63 1.48.32 2.15.43 2.45 1.85-.5 1-.25.3-1.28 1.06.17 1.82.65 1.25.35 3.15-2.15-.18-2.23-3.38-3.62-5.39-.47-.68-.75-.6-1.29-1.3zm-14.24 62.96c.07 0 .13 0 0 0zm26.73 11.74c.12-.01-.06.26 0 0zm-34.66 9.42c-.02 0-.04 0 0 0zM39 203c.05.06.08.13-.01.21zm0-.08v.08c-.11-.1-.3-.15 0-.08zm5.72-74.98c-.15.41-.05-.1 0 0zm-4.9-69.13c.13-.1-.03.19 0 0zM87.56 9.02c-.02-.02.05-.16 0 0zm23.55 70.9l.05.69.22.18 2.2-.15 1.44 1.47c.24.2.1.19.69.45l.4-1.62-1.76-.96c-.03-.1-.14-.06-.2-.1.54-1.49 1.5-2.22 3.12-2.4.41.53.4-.43.63 1.1.56-1.14 1.03-1.36 1.56-2.25.86.26 1.51.35 1.87 1.42.2-.3.44-1.2.84-1.58 1.17-1.07 1.23-.16 1.6.3.72 2.77.4.88-1 1.93-.57.42-.89.85-1.18 1.8l1.54-.82c.07-.05.22-.03.28-.18.05-.17.18-.14.27-.2.33 1.98-.2.8.75 1.28-.27-1.36-.24-1.67.14-2.71 1.61-.54 1.36.32 2.78-.81.64-.52 0-.41 1.01-.68 1.45-.38.86.08 1.08.25-.72 1.62-1.19.38-2.54 1.77l1.5.71c-.9 1.4-.21-.05-.74 1.53 1.86.38 2.09.55 2.28 2.54-1.34-.06-.55.27-1.89-.82l-.46-.35c-.58.81-.38-.01-.63 1.5-1.64.03-1.17-.42-2.97-.2.18 4 1.02 1.44 1.33 5.2l-1.27.1c.03.2.16 1 .16 1.19l-.38 1.02c-1.48-.6-1.6-1-1.9-1.35-.71-.82-.48-.79-1.54-1.52-.24.13-.75.35-1 .54l.34 1c.29.02 1.02 0 1.27.03.53.07.39.1.66.25-.67 2.22-.87-.14-1.8 1.61-.44.87.05 1.62.13 2.88-1.14.34-1.07.16-2.17-.28l-.63 2.34 1.65.63-.38 1.35-.36.52c-.04.05-.15.33-.19.26-.03-.07-.1.19-.18.27l.26.19.72.4c.2.11.38.14.6.27 0 1.04-.3 1.7-.86 2.26-.63.62-.28.2-1 .66-2.15 1.37-.17 2.32-1.87 3.87l.1 1.23c.1.06.16.08.18.07.02.07.05.17.12.31-1.15-.13-.59-.28-1.25-.07l-.1.4c.07 1.08.58-.4.04 3.59 2.08-1.23.74-1.35 4.24.15-.4-2.4-.28-1.3-1.36-2.3 3.69-1.02 4.26-.9 7.38-1.4 2.54-.4 1.94-.09 3.28 1.04 1.64 1.4 1.5-.41 2.94 1.24-.54 1-1.5 1.1-2.76 1.12l-.38 2.47c.84.46 1.46.89 1.29 2.23-.2 1.57.1-.05-.56 1.44-.26.59-.04.28-.39.9-1.92-.06-1.13.15-2.05-.8-2.6-2.71.03-2.42-1.96-2.7l.72 5.74c-1.13.07-.63 0-1.33.39l-.88.54c-.04-.09-.18.09-.27.13-2.32-1.77-.55-2.32-2.54-3.44l-.11 1.94-1.22.5.29 3.73c-.9-.57-.24-1.35-2.4-1.27l-.47 1.88c-.01-.04-.07.15-.11.22-.09-.22-.48.3-.02-1.04.26-.74.42-.12.48-1.36.05-1.11-.4-1.55-.43-2.89l-.91-.07c-1.14-.24 0-.04-.9-.4l.4 4.3-1.38-.3c-.59-1.7-1.54-2.34-3.48-2.16.18.55.1.28.35.74l.42.75-.22.2-.42.35c-2.2 1.81-.1 1.82-2.57 2.05.08 1.42-.04 1.23-.38 1.8-.68.07-1.2-.04-1.67.16-.18.09-.35.29-.52.43-.15.13-.37.43-.4.35-.04-.07-.15.12-.23.18-.6 2.06-.43 1.66.1 2.78.99.68 1.8 1.73 2.72 2.8 2.4.22 1.46.05 3.22.75l-.37-2.7c.89.87.3-.08.77 1.5l1.06.35c-.44 2.6-3.2 3.65.94 3.64l2.5-.04c.28.35.15.22.4.55.1.12.34.44.35.42.03-.06.12.16.19.23 1.57-.58 2.14-1.14 3.66-.18-.65.84.05.35-1.52 1.04-1 .44-.82.3-1.35 1.25l2.34-.27c.3.64.38 2.03 2.88 1.86.27-.58.65-1.8.94-2.33l3.28.36c.47 1.18.38.48.32 1.96 1.95.68 1.46.55 2.26 2.34.9-.04 1.88.06 1.65-1.15-.3-1.61-.05.01-1.65-.83-.1-.06-.22-.1-.3-.3-.08-.23-.2-.24-.3-.37.4-.25.4-.32.77-.57l2.33-1.57c.28.3 1.21-.53.36.71.95-1.09.64-.1.58-1.42-.55-.42-.46-.47-1.25-.62-.46.94-.11 1.7-1.75.8-.2-.8-.44.94-.1-.83.24-1.25 1.78-1.95 2.79-2.1 1.82 1.92-1.08-.39 1.95 2.04.13 1.1.18 2.7.07 3.1 1-.5.84-.82 1.4-1.64l.56-.7.1-.2.25-1.34c1.8.97.74.24 2.55.52l-.94 1.76.56-.54c.66-.65.54-.07 1.96.06.46.04 1.33-.02 1.89.01-.88 1.18-.87.43-1.79 1.32.06.04.16.12.35.23 2.33 1.37 1.13-.11 2.56.97-.2 2.1-.5.97-1.18 2.48 1.42 1.13.94-.2 1.08 1.87-3.66.7-1.14-1.7-4.82-1.88.65 1.44 1.87 1.86 1.78 4.15-1.26.18-.86-.05-2.54-1.47-.45-.39-.17-.28-.75-.5.1 1.7 0 3.17-.24 2.56-.02-.06-.12.16-.17.25.23.28.32.4.68.79l.13.16c1.5 1.58.81-.59 1.12 2.24-3.82-.01-1.69-.1-3.6-3.07l.1-1.06c0-.02-.03 0-.04 0l-1.14-2.37c-.57-.24-.83-.4-1.57-.57-.33.53-.47.87-.78 1.39 1.03 1.13.6 3.03 1.7 3.9-.41.55-1.38 1.88-1.35.5l-.29.93c1.56 1.3.63.43 1.43 1.75.83 1.36.78.37 1 2.34-2.4-.02-.82-.09-2.33-1.19-1.36.38-.5.44-2.04.8-.76-2.38-.87-5.73-3.28-5.99-.13 1.28.15 1.87.46 2.78.47 1.34.66 1.08 1.14 2.5l-2.84-.46c-.67 1.07-.5 1.35-2.03 1.25.56.5.33.41.51.84-2.21-1.02-2-2.37-3.34-2.2-.26 1.03.42 2.7.7 4.08.75.03.31-.23 1.5.07-.57 1.1-.13-.2-.6 1.25l1.83.2v2.05c-2.11.48-1.53-.36-3.57-.24-3.08.18-3.4 1.33-4.63-.64l-.69-1.12c-.42 1.03-.06 1.2-.16 2.45l-1.37-2.94c-1.33 1.9 1.5 3.86 1.84 8.39l-2.02-.83c-.1 1.78-.38 2.85-1.78 3.47a7.83 7.83 0 011.13-4.41l-1.08-1.42c-1.18-1.14-1.56.15-1.56-1.3-1.57-1.31-.71-1.3-1.25-2.6-.7.3-.3-.17-.65.71l-.91 2.73-1.42-.06c-.07-.22-.29-1.29-.3-1.3-.42-.99.11-.4-.79-.81-.3.54-.27.17-.28 1.07 0 .03.14.92.14 1.2-.73.4-.62 0-1.16.55-.39.39-.22.64-.9 1.27-1.01-3.9.26-4.2-1.32-7.26-.58-.63-.12-1.52-1.47-1.77-.05.08-.12.19-.13.25-.02.07-.08.18-.1.27-.15.76.42 1.11-.1 2.12-.41.78-1.54.77-2 1.5 1.12.4 1.16.27 2.46.46.09 1.38-.4.36-.43 1.96-.01.71.3 1.09.38 2.18l1.58.5c.13.4.35 1.67.49 2.03l.66 1.02c.02-.07.11.16.17.25-.43.7-.9.88-.92 1.77 1.09.35.48.02 1.71-.33.13 1.4.65 2 1.94 2.05l.56-2.48c-1.06-.11-1.15-.06-1.9-.66.24-.23-.42-.3.93-.51l3.44.25c-.24.53-.03.13-.34.59l-.35.38c.71 1.08.84 2.22.7 2.5l2.76-1.3c-.78.61-.96.42-.66 1.88l3.5-.1-.52 1.29c-.39 1.26.63.07.25 2.32.93-.5 1.88-1.23 2.7-1.21 1.31.02 3.56.47 4.48 1.36.03 2.55-1.53 1.04-2.33 3.36 2.14.05 1.96-1.35 5.73-1.64l.97-1.47c1.12.76.17-.01.93 1.37.57-.44-.56-.5.9-.35 1.63.18.09-.13.81.51-.62 2.34-.37.36-1.32 1.78.34.21-.55.33.73.16.81-.11-.38.01.76-.23.88-.2 1-.16 1.87-.1 1.77-2.24 1.32-.7 3.15-.26.43.1 1.56.17 1.78.22.6.13.77.43 1.35.49 1.1.1.78-.3 2.28-.1-.33 2.14-.84 1.01-1 3.37 1.72.52 1.17-.34 1.08 2.07-.46.2-.3.26-1.09.22-.11 0-.7-.15-.8-.18a6.86 6.86 0 00-4.41.47c.6 1.34 1.56 1.02 3.18.92 1.62-.1.61-.4 3.23-.16l.31.57c1.2 2.48 2.55 1.22 2.54 4.4-4.28.32-1.21-3.9-5.05-4.02-.19 2.2-.27 1.26.64 2.2.42.42.84.7 1.18 1.32.61 1.11.77 2.92.26 4.12-1.28-1.74-.38-4.1-1.57-5.08-.42-.35-2.11-.7-2.43-.12-.49.9.36 1.29-.3 3.12-1.14.1-1.3-.32-2.14-.7-.42.45-.57.66-1.27.92l-1.75-1.5c1.17.1.7.2 1.9.43l.44-1.55-1.5-.75c-1.84 1.17-1.84 1.9-3.22.65-.2 1.95-.67.55-.36 2.9.2 1.45.45 1.1.07 2.88-1.07.58-2.16.66-3.06.07-.5.21-.24.13-.59.35-.1.07-.33.49-.43.3-.04-.08-.15.1-.23.15-1.61-1-1.12-2.25-2.22-3.23-1.33-1.22-.75-1.51-1.26-3.04-.27-.84-.02.28-.56-1.02l-.24 5.58c-1.47 1.57-.46-.35-.96 2.26-.85.36-1.04.71-2.07.51-.14-1.67.2-1.71-.36-3.12-.55.63-.6 1.23-.91 2.19-.24.74-.5.91-1 1.58-1.4 1.79-.96 2.25-3.23 2.4.14-3.52.27-.79 1.25-3.03.73-1.71.6-1.11 1.55-2.3l-1.55-3.42c-.75 1.27.36 3.52-.32 5.9-1.53-.58-.86.01-1.32-1.64-.25-.88.04-.23-.55-1.2-.19-.5 0-1.38.15-2.2-.46-.12-.98-.1-1.02-.28l-.83 1.22-.78-1.1c0-.03.22-.85.25-1.03-1.28.7-1.08.28-1.84-.29-.36.9-.85.9-1.78 1.04-.02 1.45.12.74-.4 1.77-1.4.04-1.78.7-2.82-.4-.74 1.18-.09.96-1.25 1.66-.22-.34-.7 0-.2-1.94l1.34-4.18c.27-.71.14-.4.43-.78 1.58 1.68 3.61 3.01 3.86-.8l-3.24.17c-.92-1.7.37-.82-.94-1.33-.33 1.03.03-.17-.06.76l-.23 1.08c-.42-1.86-1.14-2.72-1.45-3.8.1-.72.31-1.48.08-2.25-.41-1.44-.2-.54-.84-.8-.89.38-.34-.76-.85 1.2-.34 1.3-.38 2.8-1.33 4.1-.01 0-.92-.06 0-2.39 1.27-3.21.58-1.34.3-1.99-.83.5-.4-.4-.88 1.22-.55 1.83-.33 2.97-1.3 4.37-1.6-.27-.54.41-2.3-2.13-.49-.7-.3-.73-.7-1.27-.68-.9-.32.17-1.03-1.1-.47-.84-.6-2.19-.83-3.28-.75-3.65-.5-2.6-1.23-3.18-.67 1.67-.8 3.66-1.05 4.44-.55 1.79-.2.69-.82 1.23-.05-2.25.73-3.44.63-4.82-.3.82.27.02-.8.75l-.57 3.89c-.25 1.4-.42.44-.44 1.8-.01.73.18.72.28 1.64l-1.92.17-1.43-1.57-1.67.39c.45 1.17.3-.5.46 1.14.12 1.23-.19.4-.13 1.52 1.87.4 2.21-.37 3.16.96-.97 1.23-1.43.54-3.08.7 0 2.45-.17 3.13-2.2 2.02l.14 4.45 1.24.5c.23 1.6-.1 1.52.87 2.2 4.16 2.93 1.5 3.05 5.8 3.13l-.77.94c-.4.53-.06-.06-.38.62l2.03.7c-.84 1.38-.58.15-.95 1.25 3.57.33 3.48-1.18 6.45-.69 1.68.28 1.15.6 3.12.61 1.68.01 1.93.35 1.78 2.39-.18.44-1 .53-1.85 1.78.19.82.27.76.38 1.69l1.95-.03v.91c1.56 0 2.08.37 2.9-1.36l2.03.24c.09-.16.4-1.5.6-2.14 0-.03.36-1.2.38-1.23.63-1 .04-.4 1.13-.92.3 1.9.97 3.65.3 5.13l-1.45 1.47c-.68.32-1.35.39-1.6.24 1.6 1.37 1.06.25 2.53 2.57l.74-.54c0-.05-.23-1.05-.23-1.09-.02-1.94.03-.63.33-1.16.26-.12.74-.62 1.42.04.89.84.36 3.26.32 4.6 1.08.05 1.66-.34 2.72-.2l.49.07c-.1-.01-.24.01.12.18 1.18.51 2.37.6 3.03 1.1-.83.47-.1-.05-.84.07l-.71.3 1.78 1.65c4.53 3.58 4.13 1.2 6.66 2.6l-1.22.72.02 1.83c1.64.11 1.42.58 3.18.66 1.81.08.9.38 2.48 1.06-.24 1.75.24 1-.8 2l1.12.2c.57-1.77-.7-.56.94-1.5.43.69.3.26.5 1.42.16.94.05 2.02.43 3.11 1.16-.62.56-2.38 1-3.58.5-1.36.22-.53.57-.95 1.06 2.51 1.29 3.96 4.26 2.29-.58-1.37-.31.48-.66-1.7 2.96-.21 2.95-2.22 5.05-.23-.1.26-.17.42-.18.51-.05 0-.15.06-.32.2-.7.57-.89.66-.88.58l-.08.09c1.04.65 1.46 1.5 1.72 3.02.76.3 1.29.8 1.36.82.69.32.2-.36 1.34.12l-.4 2.36c-.63 0-.5.23-1.38-1.11l-.2.27-.54.6-.19.1-1.29.81c1.46.53 2.8.29 3.07 2.64l-1.62.67c-1.4-1.48-1.43-2.72-2.81-3.36-.37.86-.57-1.15-.25 1.18.18 1.34-.1-.22.33.72.06.11.35.66.4.8.24.87.09.37.14 1.4-3.98-1.16-2.62-1.1-3 2.66-1.52-.7-.73-1.42-2.2-.66l-.92.42c-1.55.85.25.6-1.44 1.19-.34-.64-.6-1.11-.82-2.27l-1.36-.5-.37 1.5c-.98-.42-.41.01-1.08-.65-.03-.02-.41-.7-.47-.83-1.18.46-.3-.03-.83.55l-.29.8c-.39-1.49-.22-1.22-1.73-1.21l.1 2.91c.06.06.16.12.21.15l1.02.49c-.79.68-.4-.13-.7 1.34-1.02.3-1.62.63-2.32.86-.2-2.73-.86-2.3-2.01-3.78-.44-.6-.63-1.47-1.09-2.02-.61-.74-.51-.1-1.06-.95.53 1.5-.24.53-.26 1.2-.02.8.3.16.92.48 1.18.6 1.34 2.08 1.43 3.54-2.19-.94-1.1-.23-2.05-1.9-1.6.11-.38.31-1.34.52-1.47.32-1.98-1.58 0-2.77-.5-.47-.58-.5-1-1.26l-1 1.12c-.74 1.2-.35 1.38-.34 3.08l-2.2.76c-1.2.83-.18.57-1.62 1.13-.28-.36-.25-.14-.5-.8l-.54-2.14c-.91-2.72.25-7.99-1.1-10.43.03 1.23.41 3.26-.53 3.8-.99.56-.75-.17-1.07-.56-.87-1.06.28-.36-1.1-.84l.45 2.94c-.58-.26-.8-.33-.85-.36.04.01.12-.04-.3-.44-.35-.33.21-.08-.7-.77l-1.3 1.78c-.83 1.6.4.65-1.28 1.22.06.14.58.03.2 1.38-.4 1.39-.94.87-2.44.99l-.95-.13c-.75-2.01.33-1.22.4-3.6-.6.36-1.14.32-1.67-.06.92-3.22 2.92-1.26 2.99-6.4l-.16.19c-1.35 1.68-2.2 3.46-4.37 1.95 0-.97.06-1.3.7-1.78.91-.66 1.14-.55.84-1.57-.08-.03-.18-.09-.24-.09-.9-.1-.53.1-1.7.36l-.26-3.54-2.22.78c-1.16 3.9-2.05.78-2.61.38-.15 1.95-.79 6.06-1.87 8.15-1.33.23-2.14-.35-3.87-.44.04-1.58 1.28-3 2.3-4 3.03-2.9-.3-2.5 1.8-5.8 1.64-2.56 1.24-6.88.39-9.85-.54 1.43-1.83 5.34-2.9 6l-.23.13c-.06.03-.16.05-.23.1-2.64 1.46.43 1.25-2.45 1.83-.1-.99-.24-1.08.01-2.07.3-1.18-.11.14.54-.94l1.05-2c.6-.93 1.34-4.12 1.5-4.33l1.18-.5.52-5.88-.7-.64c-2-1.49-3.88-3.01-6.14-4.02l.35 8.59c1.03 1.5 1.86.12 2.35 1.96-1.46.76-.86-.35-2.55-.44-.08 1.27.08 2.56.7 3.36l-.36 1.1c-.04.1-.27.47-.32.57l1.42 75.64a4.63 4.63 0 01-3.24 1.07 6.9 6.9 0 01-3.5-.93l.62-78.6c.1-1.54 0-2.78.04-4.29.06-2.34.58-.8.13-2.8-1.15.7-.86.1-1.26 1.95l-1.22-.01c-.63-1-1.31-1.55-1.26-2.07l-.47 2.92a4.28 4.28 0 00-1.15-.31l1.22 2.95.1.2.1.2.31.89c.54 1.41.43.75.48 2.48-2.57-.17-1.7.15-3.08-4.6-1.49-.04-1.22-.4-1.25.72.77 3.6.14 2.36-.24 2.65l-.8-.65c-.03 2.67.13 1.8 1.99 3.68l.36.32c.81.7.38-.05.78.79 1.3 2.72-.35 2.67-.92 2.75.37 1.43.62 4.02-1.37 3.15-2.24-.98-1.02-5.77-1.53-7.18-.54-1.48-.16-.23-.33-1.98-.14-1.36.04-.56-.57-1.63-2.23.92-.52 2.93-3.95 3.12-.2 1.23-.1 1.16-.92 2.02-1.28-.26-1.18-.1-1.58-1.34-1.1-3.5 1.03-2.87-.94-3.59-.44-.16-1.3 0-2.07-.12-.54-1.19-.46-1.44-.42-2.48l-.04.03-1.45.46-3.47.7c-.54-1.56-.14-1-.97-1.9-1.45.92-2.64 3.2-4.23-.74 2.03-.32.44-.33 1.93-1.41 1.3-.95 1.3.15 1-1.95l-1.51.4c-.03-.07-.02-.17-.03-.2l-.06-.36-.05-.17c-.09-.14-.1-.21-.09-.24-.05.01-.18 0-.5-.08l-.4 2.5c-.5-.64-.68 1.12-.3-2.35-1.74.04.3.76-.85 2.58l-.53-1.72c-1.12.86.04.44-1.36 1.12.59-3.97-.1-1.99-.3-3.11-.03-.12-.12-.1-.18-.17.63-.7.37-.22.76-1.31l-.74.24c-.7-1.8-1.01-.53-1.13-2.84l1.32-.54c.75-.29.18.11.81-.53a6.5 6.5 0 00-1.47-.5l-1.08-.37c-.06-.14-.18-.12-.26-.2 1.24-1.39.32-.23 1.67-.87 1.34-.62.54-.04.91-1.25-.35-.24-.18-.25-.8-.4l-.49-.11c.04-1.1-.05-.4.9-1.12.83-.63.35-.55 1.5-1.22l-.2-3.59c-.83-.65-.94-.15-1.73-1.37.63-1.57-.15-.23.88-1.17 2.33-2.13.54-.48 2.37-1.67l.02-1.93c2.05-.6 3.33.1 4.72.32-.15-1.4-.38-1.28-.38-2.74-1.31.43-.46.75-2.18.22-2.1-.65-.56-.16-2.6.38l.7-5.84-.2-.19c-.97-1.11-.63-1.23-1.24-2.08l-.22 5.15c-3.04.2-2.5-3.17-2.5-6.43 3.14.06 1.92-.09 3.93-1.77.6-.74.42-.51.84-1.42-.24-.54-.26-.92-.75-1.39-.76-.74.16-.37-1.21-.42l-.34.77-.07.27c-.15.43-.1.42-.21.69l-1.26.25c-.67-1.46-.68-1.17-.42-2.6-.46.15-1.61.98-1.8-2.2l-1.05-.54c-.35-.4-.24-.6-.41-1.13-.03.25-.25 1.39-.25 1.4-.38.88.06.34-.75.78-.26-.5-.36-.07-.2-1.04.18-1.13.99-.95.16-2.58-.67.99-1.07 1.68-.81 2.7.64 2.58 1.16 1.38 1.33 1.3l.46 1.22c2.9.3.83 1.15 2.46.74-.85 2-.18 2.54-1.85 4.24l-.2-.47c-.21-.6-.2-1.1-.56-1.28l-.33 2.64c-.99-.58-.43-.04-1.1-1.42l-1 .97c-.43-1.62-.67-.57-1.93-1.48.24-1.3.11-.5.55-1.78-.4-.8-.86-2.2-1.14-2.95l-1.29-.34c-.54.78-.67 1.11-1.48 1.44-.74.28-1.53.54-2.26.66.2-1.2.29-1.18.13-2.52l-2.63-.18c-.08-2.64 1.47-4.3 2.07-6.48-1.29.24-1 .53-1.85.82-1.43.47.3-.21-1.68-.2-1.38 0-1.33.8-3.7.79l.18-3.74c-1.77.8-.29 1.62-2.5 2.18.26-3.06 2.03-2.8 2.23-5.27l-2.44.4c-.07-.09-.17-.18-.22-.26-.05-.06-.15-.16-.2-.24l-.41-.65c-.09-.13-.31-.46-.43-.71l-3.58.34c.16-2.47.78-1.24.72-3.19-.01-.42-.18 0-.1-.85.1-1.3.35.66.3-1.68-.06-2.04-1.65.14-1.71.18l-.22-2.26c-2.16-.18-.6-.28-1.46.41-.33.28-.69 1.17-1.45.44l-.4-.44-.35-.42c-.67-.75-1.11-.86-1.18-1.56-.05-.4.27-.6-.16-1.47-.4-.83-.42-.1-.73-1.36.77-1.48.7-.51 1.58-1.78-1.15-2.38-.5-.81-2.38-.8-.04-1-.2-1.1.63-1.49.2-.1 3.14.25.22-4.15-.74.12-4.53 3.24-4.14-1.74 1.07-.1.97.21 1.67.32.7.11 1.09-.2 1.58-.2 1.21-.03.7.87 2.2.82-.13-1.35-.65-.7-.63-3.63l2.2-.52c.5.8.52.95.9 1.96l-1.5 1.6c0 .09-.05.19-.07.28-.2.78-.14.18-.29 1.16.32.3.4.4.83.7l.96.58.46-1.76c1.12-.25 2.3-1.07 3.47-1.5.48.77.74 1.2.9 2.5l.92-.68c-.04 1.28-.37 1.35-.28 2.14l1.37.12.87-2.7c-1.37-.27-2.52-.98-2.72-2.58 2.09.16.69.56 2.4 1.32.95-4.2-.35-2.63 1.04-4.5l1.74.2c1.08.03.05.31 1.18-.37-.18 1.6-.09 2.08-1.29 2.29l.26 1.79c2.53-1.1.51-1.16 3.15-3.15l1.22.78.94-1.27c2.14.78.4 1.67 3.43 1.17-.31 1.79.13.66-.52 1.7l1.6-.14c-.28.71-.14.62-.49 1.29.33-.29.47-.13.83-.4l.33-1.08c-1.6-1.7-.7-1.31-.21-2.94.42-1.34-.34-4.2 1.9-4.13.54 1.59-.1 1.91-.93 2.48 1.3.94 2 .76.34 2.82.64.4 2.36 2.63 4.1-.34.71-1.23-.06-.58.39-2 .54 0 2.02-.06 2.18-.67.04-.1.12-.1.17-.14.6.75.6 1.02 1.57 1.3.75-.74.48-.98.48-1.48.01-.04.06-.13.06-.24 0-.13.05-.2.08-.28.44.1.68.1.8.1-.2-.3-.41-.84-.59-1.9l1.95.3c.27-.53.38-.57.55-.82 1.22-1.8.14-1.23 1.68-1.28l-.11 2.07c1.01.12.86.12 1.66.39l-.01-.35a.6.6 0 00-.04-.2l.05-.13.7-.33c-.01-2.14.37-1.94.26-3.8-.43-.32-.19.8-.38-.5.3-.55.12-.52.62-.7l.67-2.71c1.12.4.9.38.97 2 .54-.7.56-1.02 1.72-.92.44 2.54-.35 1.38-1.2 3.57l2.64-.21-.33-2.8.65-.07c.05-.01.16 0 .2-.03 1.12-.54-.08-.7 1.6-2.64l6.18.17c-.41-2.12-2.46-3.03-2.57-5.1 1.56-.43.65.15 2 .34.04 0 .16.02.17-.05.03-.07.13-.05.18-.08.6-1.41-.48-.34.06-2.84 1.4-.66 1.2-.19 2.11-1.35l2.14.02c-.38.3-.03.15-.14.64l1.13-.13c.73-1.1.46-1.29-.06-1.95l-.72-1.12-.1-.12-1.5-.84c.02-.06.03-.17.03-.21l.25-1.95c.24-.82.6-1.12.43-2.5l-1.52-.16c-.53 1.48-.53 2.63-2.11 2.98.31-2.08 1.4-2.53 1.45-5.38-1.4-.79-.2.07-1-.94.62-.78.48-1.36.43-2.62l-2.04.12v2.33l1.56.76c-.65.36-1.13-.46-1.24 1.3.94-.09.65-.23 1.83-.32l-.86 1.32c-.55.81-.34-.1-.5 1.54-1.12-.94-.59-.67-2.42-.62l-.98 1.72c-.27-.52-.4.88-.2-.93.11-1.24.72-.6.53-2.95l-.21-.1c-1.82-.82-.57-.2-1.99-1.37-1.7.73-2.42 2.08-2.49 1.94-.02-.07-.11.16-.17.24.64 2.4.71 1.24.53 4.41l-1.19-.35.04-3.6c-.91.4-.45-.03-1.07.63-.3.31-.36.69-.36.69-.62.94-.22.63-1.6.8a4.32 4.32 0 011.71-3.15l1.3-.69.19-.12c.62-.26.2-.25 1.38.2.48-1.03.53-1.07 1.53-1.8l-.11-3.6c-1.21.42-.34-.21-1.02 1.1-.62 1.2-1.15 2.06-2.4 2.26.01-2.63 3.35-4.87-.33-4.7-.75 1.09-.71.7-1.34 1.41-.9 1.02-.1.63-.85 1.9-2.67.1-.24-.22-1.38-.75-.62-.29-.3.35-1.24-.32.7-1.5.68-.34.8-2.17-1.65.25-.45-.18-1.13.58-.53.6.18.17-.8 1-.43-.4-.17 0-.56-.61l-.75-2.14c2.68-2.18 2.4-.5 3.34-2.34l-1.51-.63c-.84-.66.28-.38-.83-.94-.75 1.1-.02 1.7-1 3.15l-.54-.71c-.28.66-.63 2.33-.96 2.95l-1.04-.05-.13-1.97-1.34.34c-.4-1.08-.42-.9-.82-1.78.15-.46 1.17-2.53-.12-2.74-.7-.1-.8 1.08-3.12.32l-.48-3.5c-.01-.02.05-1.04.06-1.11l-1.76 1.26c-.46-.9-.1-.49-.72-1.24-.45-.54-.44.34-.66-1.03-2.25-.05-.25 1.02-3.17.78.5-1.49-.58-.38 1.02-1.36-.95-.27-.94-.11-1.75.1-.21-1.34-.27-1.6.89-1.86.6-.13 1.79 0 2.47.02-1.7-.98-.56-.98-2.4-1.78.41-1.81.36-1.03.25-3.13 1.38-.05.91-.14 1.47-.7l-1.78-1.03c-1.56.67-.34 1.33-3 1.25.36-1.85-.28-.65 1.07-1.65-1-1.63-.27-.58-.19-3.55-1.46-1.07-2.23.12-2.43-1.78.76-.28 1.89-.23 2.72-.52 1.38-.48.9-.72 1.9-1.85l.72 1.66c-.72.46-3.24 1.21-.46 3.17.6.42.68.25 1.15.85.26.34.34.84.82 1.68 0-1.16.18-1.14.23-2 .1-1.48.08-.57-.34-.86l.95-1.42c.74-.72.02-.26 1.23-.7l.67 4.97c1.15-.67 1.43-.83 1.53-2.49 1.04.19 1.34.48 2 .12.02-.01 2.1-1.9 2.74-3.42-1.54-.64-1.4.4-2.16-1.76-.33-.96.04-.21-.4-.98.74-1.07.6-.4.76-1.84-1.38.52-2.88 2.26-3.51-.29.87-.7 1.21-.38 2.38-.43l-.24-2.76c1.52.23.66-.07 1.68.5.03.03.35.34.79.6.2-.36.3-.86.76-1.1 1.75-.85 1.31.31 1.37.35-.13.34-.17.5-.18.59-.04.03-.12.09-.23.22l-1.54 1.32c.45 1.23 2.6 2.63 3.4 2.94l.38-1.01c.04-.06.06-.17.1-.22.38-.6.2-.35.96-.48l.07.14.24.8c3.3.36 2.67-.43 3.05.67.1 1.16-.3 1.3.1 2.4.45 1.26.42.8 1.6 1.06.3 1.05.27 1.25.86 1.89l1.06.94c.96 1.04.42.78.95 1.73.38.71-.06.09.62.72l.56.5-.18.1-.62.11c-.02 0-.6-.11-.77-.12-.61 1.54-.83.38-1.24 1.96 1.52.12 2.07-.21 3.1-.24.88-.01 2.13.29 3.35.28l.16-.2c2.02-2.63 3.52-.83 3.78-1.82.22-.98-.02-1.95.17-3.27l2.68-.9c.3-1.3-.1-1.55 1.03-2.14 1.16-.63 1.92-.35 1.93-.35l.62.2c.56 1.32.52 1.49.32 3.16 1.34.4-.03-.08.62.55l.53.1c.18-1.78.48-1.99-.53-2.85l.94-.6-.47-1.98c-.15-.46-.1.18-.19-.8-.71.23-.8.41-1.74.14l.22-2.65c-1.11-.06-2.5.2-3.05.15-1.94-.2-1.03-1.33-2.62-.28-.52.68.44 1.39.8 2.37-1-.79-.94-.41-1.42.85l-.32-.33-.33-.3c-.21-.17-.27.1-.36-.26-.02-.09-.11-.07-.17-.12.04-.26.23-1.12.23-1.13l-.14-1.17c-.27-.1.42-.56-1.13.05-.84.33.48.04-.86.42-1.8-2.14-1.11-.81-2.38-1.6l1.7-1.18c-1.55-1.97-1.26-1.16-4.06-.85l-.66 2.54c-1.03-.34.08.02-.94-.44-.66-.3-.02.07-.49-.19.13-1.62-.27-.54.46-1.23.05-.04.19-.1.25-.15l.58-.58c1.22-1.4.5-1.4 1.46-2.05-.92.1-1.14.63-1.82 1.24l-.17-.25c-.77-.98-.5-.77-1.64-.68-.58.97-.03.26-.35.92-.37.8-.05.27-.6.91l-.2-1.66c-2 .06-.63.23-1.67-.53-.98-.7-2.65-2.4-.92-3.95-.33-1 .22-.55-.75-1.16l.44-.2c.81-.7.4-.97.9-2.06-2.07-.02-1.15.07-2.54-.69-1.54-.85-1.02.56-2-1.01.57-.64-.98-.56 1-.57 1.39-.01.15.58 2.74.85l-3.14-1.82c-.07.04-.14.12-.21.16-.74.42-.98.55-2.16-.04.27-.83-.07-.24.57-.74l.67-.33c-.47-1.18.05-.3-.91-1.02 2.51-.02.67.78 3.39 1.1 1.5-.4.52.65 1.17-.8-.3-2.2.25-1.04-2.14-1.08.48-2-.01.22 1.98-2.42.98-1.3.74-.57 1.62-1.18.81-.54.08.03.58-.63-2-1.32-1.8 1.25-2.06-3.46-.71-.33-.6-.27-1.54-.44-.11-1.58-.34-1.94-.55-3.16 2.8-.52 1.21.12 3.1.17.92.02 1.31-.35 1.91-.41 1.77-.19 1.03.13 1.5.55-.75 1.4-.96.87-2.62.85l.18.31.18.29.18.24c.06.08.48.5.52.53 2.34 1.9 1.12-1.78 3.3-2.17.08 2.98-.19 2.22.88 3.48.77 1.27.1 2.96-.52 3.77l-.13.16-.12.08.18.84c.75-.3 1.15-.82 1.59.37.03-.32.04-1.65.04-1.67.23-1.5-.22-.6.77-1.23.83.99.42-1.07.6 1.25l-.71 2.84.74 1.02c1.09-.14.42.39.96-.31l-.3-2.83c1.65-.66 1.8.16 1.7-1.8l-1.5.13c-.8-.25-.66.19-.6-2.77 1.38.75.22.84 1.73 1.15l.04-.72c-1.22-1.51-.25-1.59-.25-1.59-1.17.11-3.12-.2-3.78-1-.1-.13-.37-.83-.38-.95l.05-.4c.14-1.96.05-1.24.45-1.84.67.46.76.74 1.56.97.66-1.95.18-1.6 1.08-2.37l-1.25-.31.2-.34.39-1.06c-1.36-.46-1.5-.45-2.51-1.4-.33-.31-.65-.54-1.02-.92-1.11-1.12-.22.36-.91-1.46 1.53.29 1.04.1 2.13 1.05 1.28 1.1.64.81 1.51.93-.94-1.07-1.5-1.19-1.83-2.4l.03-.66c1.73-.26.58-.46 1.65.96 1 1.31 3.06 3.34 4.73 3.42l.61-2.53-1.56.49c-.16-2.62-1.07-1.37-1.1-1.35l-.05.16.42 1.31c-.71-.03-.84 0-1.25-.32-1.97-1.47.97.52-1.73-2.88l2.89-1.6-.75 1.27.98 1.3c.02-.06.1.13.15.2 2.27-1 1.68-1.46 1.89-2.02l.09-.2.12-.22.3-.48c-.65-1.17-.7-.77-1.2-1.4l-2.28-4.87c1.86.36.66-.34 1.73 1.66l1.23 2.7c.25-.36.24.26.24-.56-.01-.74-.03-.09-.22-.7-.32-1-.01.28-.27-.8l-.1-.62c-.35-1.49-.86-1.06-.52-2.8.6.65.2.2.62.92a30.24 30.24 0 01.24.47l.32.44c1.64-1.46-.66-.75 1.77-1.04-.25 2.22-.35 1-1.22 2.49l1.33.92c.05 1.52-.35 1.08-.04 2.23l.58 2.11c.84.51.5.27 1.2.94l1.17.53c.49-1.42.2-1.27.91-2.62l-.42-1.46c-.05-.62.15-1.21.24-1.5l-.44-.24c-.89-.67-.32.15-.43-.88l-.22-2.36c-.73-1.67-.82-1.38-1.1-2.94 1.24.05.32.16 1.36-.15l.15.16.87 1.15c.74 1.35 1.42 4.09 3.24 2.9-.39-2.28.35-.51-1.25-1.42.06-1.35.18-1.39.46-2.49l-.33-4.7c-.32-1.1-.37-1-.48-2.53.72.61.35-.06 1 1.39.24.56.41 1.03.58 1.41l.45-1.26c.43.6-.04-.7.5.97 1.08 3.43.32 6.42.37 7.96 1.38-.04.7-4.2.9-5.72 1.19-1.76.9.5 1.67-2.46l.96 3.88c2.76 1.72-.12 1.36 3.17 1.8-.92-2.33.16-3.46.46-5.72.2-1.52-.3-3.27.4-4.6.41.48.21-.56.52 1.04.21 1.12-.28 2.24.1 3.15.45-.97.12-.29.3-1.35.03-.1.03-.22.05-.32l.07-.3c.02-.09.1-.15.1-.3.02-.16.07-.19.12-.28.13.2.2.08.44.71.4 1.04-.25 5-.53 5.81l.31.42.13.21c.5.92.27 1.6.46 2.22.36 1.1-.06.17.6.91.82-2.32-.44-.88 1.19-2.34.06-1.33.05-.43-.6-1.96 2.13.09 2.47.01 2.56 2.24-.58.38-1.1.8-1.85.52.85.42 1 .63 1.6 1.32.6-3.23 1.37-2.85 1.86-3.13-.04 1.9-.28 1.44-.42 3.08l.72.11c-.54 2.1-.34 1.18-.31 3.33 1.1.15.4-.06 1.34.17.3-2.6 2.39-5 2.4-5 .27-.57-.1-.05.2-.77l.19-.47s.06-.03.22-.26c1.56-2.29.16-2.36 1.99-3.2l.23.56.09.26 1.06 1.43c-1.57 2.5-.23 1.53-1.16 3.1-.4.69-1.14.77-.85 1.99.47-.4.35-.85 1.25-1.5l1.18 1.13c.5.7.35.43.58 1.54-1.92-.02-1.29-.57-2.78-.23l.44.3.22.14c.34.25.21.06.55.45l1.69 4.8c-1.74-.28-.71.12-2.02-.9l-.42.71c-1.52 1.28-.88-.2-1.1 1.6.35.7-.47.2.84.95 2.04 1.17 2.14-.8 3.61.47-.44 1.33-1 1.5-2.05 1.95-.4-.35-.4-.3-.82-.72-.38-.38-.23-.27-.54-.58-.04-.04-.16-.05-.2-.17l-1.4.43-.33 1c1.07-.12 3.77.22 4.4.6a2.49 2.49 0 01-1.3 1.62l.32 1.24a8.11 8.11 0 012.26-.63l.62 1.31c1.02-.16 1.34-.46 2.08 0-.58.9-.36.68-1.76.76.79.46 1.03.76 1.87 1.28 1.23-.89 0-.6 1.37-1l.1 1.7c-.82.2-.75.22-1.48.41-.87.23-.6.24-1.29.4-1.3.32-1.6-.17-2.67-.39l-.31.74c2.56 3.61 2.14 1.5 2.58 3.74-1.28.26-1.02.39-2.3.07-.3-1.26-.03-3.51-2.43-3.59.24 1.78.25-.16.38 1.87.1 1.65-.44.37.27 2.06.93-.77.1-.6 1.5-1.09.05 1.43.43 2.18.42 2.98 0 .47-.3 1.53-.43 2.2.06-.05.13-.1.15-.14l.7-.78c1.29.36.28-.3 1.17.7.15-.16.36-.4.62-.65l.72-.63c-.67-1.4-.58-.74-.37-2.63 2.3.38-.2.42 1.96 1l.97-1.1c-.27-1.92-.58-.74-.26-2.42.1-.59.31-1.55.51-2.01.68.3.5-.19.68.78 1.63.66 1.17.01 2.88.4.43-2.63 1.07-2.2 1.57-2.51 1.51-.95.93-2.19 2.17-1.74 1.2.43 1 .1 1.74.65-.62 1.06.04.24-.92 1 2.29.73 1.67 1 1.88 1.48-1.22.94-.97.2-2.27-.44-.38 1.74-3.05 4.06-4.42 4.95 1.09-.04 1.08.5 1.21 1.89l1.92.87c.07 1.27.8 1.97-.52 2.23-1.65.32-.97-.44-2.5-.56l.05.12.2.27c.45.6 1.06.39.25 1.93-.86 1.64.4 1.71-.48 3.26-.53-1.06-.23-1.86-.2-3.27l-.26.17-2.23.09c.07 2.56.34 2.63-.54 4.35l-1.55-.36c.33 1.35.44 2.62.34 3.96-.82.65-1.36.7-1.99 1.13l-.15 1.5c.66.22 1.22.41 1.83.71l.2 2.4.13-.15c1.48-.4 1.08-1.02 1.26-3.13.23-2.74.04-3.44 1.28-4.16.76.61.79-.28.77 1.74 0 .58-.2 1.16-.2 2.04 1.93-.2.12-.65 1.93-1.26l.2.6c.2 1.1-.22.39.1 1.42l.89.08.15-2.5c-.44-.31-.79-.61-.98-1.2-.41-1.31-.1-1.15.26-1.87 1.63.3 1.96 2.61 1.88 4.34l.86-.05c-.37-2.03.08-1.92.08-1.92l2.5-.71c-.23-.43-.3.2.1-.77 1.23-2.91 0-1.6 1.44-3.81.78.61.1.2.65.64.58.48-.04.23.8.37l.44-2.4 1.15 2.08-.96 1.4.24.13.44.23c.96.54.82.37 1.13 1.4-2.56 1.68-1.74-1.2-3.58 0 1.36.66 1 .7 1.22 1.08-1 .7-.87-.08-1.12 1.24 1.78-.38-.92-1.06 3.04-.08.13.28.2.58.22.65l.6 1.35c.71 2.67.72-.78 1.37 2.87-3.27-.26-.72-1.04-2.1-1.94-.85-.56-.65.25-.8.42-2.14 2.39-.18 2.68-.27 6.1-3.27-.51-1.51-2-4.14-2.64l.4 1.98c.23.56.68 2.61.7 3.19-3.24.19-1.13-1.7-4.24-2.3l.17 2.64c.85.61.79.28 1.25 1.43l-.8.9-.17.12-.3.25-1.37-1.55c-.03-.11-.13-.1-.2-.14-1.14 2.82.23 1.88-2.2 1.82l.15.86c.04.68.04.2-.14.58l-.31-.06-.17-.02-.7-.34L99.7 70c.4.26-.7.56.94.28.61-.1.21-.07.67-.36 2.2-1.37 1.57-2.73 3.4-1.73-.42 2.82-2.86-.43-2.82 4.66 1.18.35.22.64 1.26.01.13 1.89-.4 1.39.36 2.4l.24-.46c-.03-.05-.06-.25 0-.77l.08-.5c.77 1.39-.04 1.32 1.46 2.24l1 .68c.91 1.08-.52.07.67.94 1.7-.65 1-1.36 1.6-2.81l.76.45c-.54 1.44-.55-.73-.6 2.17 1.4-.55.67-.68 1.94-.92l.05 2.85c-1.4-.38-.89-.62-1.25.2l-.2.18-.68.98c-1.23-.54-1-.5-2.57-.44 1.48.23-.34 1.18 2.25.48l.26 2.53 1.21-1.06c.33-1.15.22-.49.62-1.08l.54-.81c.02-.1.09-.13.22-.2zm36.24 56.86l-.07-.03c-1.26-.48.53-.02.07.03zm-3.5-2.58c.9-.84 1.46-1.1 2.54-1.15-.26 1.41-.33 1-1.27 1.85l1.66.72-1.32.71c.65.53.1.3 1.1.41.44.05.68.06.79.04l1.32.78c-.52.37-1.11.5-2.01.53-1.57.04-1.51-.2-2.15.41 0 .1-.01.22 0 .28.01.05.02.19.04.25l.22.45c.97 1.51 1.21.05 1.56 2.89-2.05-.36-.65.05-1.96-.9l-3.32-2.75c-1.42.4-.47.9-1.59.54-.9-.81.48-3.29.48-3.29l-.85-1.18c.83-.65.63-.11 1.23-2.82.22-1-.03-.84.39-1.65 1.06.3 1.05.35 1.49 1.4-.35.8.06-.03-.37.53l-.01 1.39c-.71.6-.62.58-.67 2.11 2.59.03.92.07 2.7-1.55zm-6.76 45.44c1-.82.85-.7 2.38-.77l4.28-1.46c.6-.34.3-.77 1.74-1.13-.08 3.3-.94.48-1.06 3.95l2.53-.7c.83.63.63 1.38.81.94.02-.06.08.13.13.2 1.07.02 1.38-.13 2.1.4-1.27.85-2.21-.19-3.98.1-.7 1-1.29 1.26-.6 2.23-.07.09-.17.16-.22.2l-1.05 1.55c-1.16.1-1.26.05-2.36.35-1.89.52-.58-.23-1.86.18l-.09 1.3c1.51.21 1.26.59 2.43.21.83-.27 1.08 1.52.97 1.98-.33 1.34 0 .26-.56.66-.12.07-.75-.64-.1.1-.55.5-.42.64-1.24 1.4l-.19-.17-2.28-4.25c-.01-.44.15-.07 0-.67-.01-.08-.2-.25-.22-.4-.02-.13-.12-.13-.18-.2 1-.1 1.1-.34 1.86-.67l-.8-2.49.22-.23c.68-.87.46.13.76-1.78 1.84.56.8.75 2.04.93-.01 1.9.05 1.35.35 1.82 1.2-.62 1.5-.9 1.65-2.71-.48-.47-.9-.8-1.24-1.32-1.11.4-2.05.7-3.03 1.12-.66.28-.97.47-1.79.34-1.27-.18-1.22-.79-1.4-1z" fill="url(#linearGradient)"/>
</svg>